<svg xmlns="http://www.w3.org/2000/svg" width="250" height="248" fill="none" viewBox="0 0 250 248">
<!-- SVG created with Arrow, by QuiverAI (https://quiver.ai) -->
  <path d="m249.2 0.41h-248.4v247.2h248.4v-247.2z" fill="#DEF2FD"/>
  <path d="m0.79 26.91h248.4" stroke="#0B4D75" stroke-dasharray="0.5 2.5" stroke-width=".4"/>
  <path d="m0.79 59.61h248.4" stroke="#0B4D75" stroke-dasharray="0.5 2.5" stroke-width=".4"/>
  <path d="m0.79 91.61h248.4" stroke="#0B4D75" stroke-dasharray="0.5 2.5" stroke-width=".4"/>
  <path d="m0.79 123.6h248.4" stroke="#0B4D75" stroke-dasharray="0.5 2.5" stroke-width=".4"/>
  <path d="m0.79 156.3h248.4" stroke="#0B4D75" stroke-dasharray="0.5 2.5" stroke-width=".4"/>
  <path d="m0.79 188.3h248.4" stroke="#0B4D75" stroke-dasharray="0.5 2.5" stroke-width=".4"/>
  <path d="m0.79 220.3h248.4" stroke="#0B4D75" stroke-dasharray="0.5 2.5" stroke-width=".4"/>
  <path d="m28.34 0.41v247.2" stroke="#0B4D75" stroke-dasharray="0.5 2" stroke-width=".25"/>
  <path d="m61.03 0.41v247.2" stroke="#0B4D75" stroke-dasharray="0.5 2" stroke-width=".25"/>
  <path d="m93.48 0.41v247.2" stroke="#0B4D75" stroke-dasharray="0.5 2" stroke-width=".25"/>
  <path d="m125.2 0.41v247.2" stroke="#0B4D75" stroke-dasharray="0.5 2" stroke-width=".25"/>
  <path d="m156.7 0.41v247.2" stroke="#0B4D75" stroke-dasharray="0.5 2" stroke-width=".25"/>
  <path d="m188.4 0.41v247.2" stroke="#0B4D75" stroke-dasharray="0.5 2" stroke-width=".25"/>
  <path d="m221.6 0.41v247.2" stroke="#0B4D75" stroke-dasharray="0.5 2" stroke-width=".25"/>
  <path d="m108.9 200.3c2.63-4.21 7.12-3.33 10.09 1.41 3.72 5.93 2.65 10.7 0.21 13.45l-3.13 0.18c-5.47 0.35-10-4.4-10.3-10.7-0.15-3.34 1.89-7.42 3.71-9.49 3.46-4.85 9.91-12.39 13.21-13.9l1.88 0.22c4.84 0.29 10.28 7.62 12.66 14.26 2.62 6.5 2 11.67-0.93 14.1l101.8-62.79c3.85-2.77 3.09-12.3-1.81-21.08-4.51-8-11.41-13-16.19-12.17l-2.54 0.67-17.32 9.96-1.64-0.4c-1.88-0.48-4.44-0.14-7.28 1.39-14.36 7.78-41.24 23.31-61.86 42.71-2.51 2.17-5.51 5.28-5.96 9.89l-0.41 1.21c-0.83 1.12-10.05 7.17-14.23 21.08z" fill="#DEF2FD" stroke="#003E6B" stroke-miterlimit="10" stroke-width=".7"/>
  <path d="m217.6 114.4c5.46-1.1 12.53 4.38 17.36 13.58 4.52 8.85 4.31 17.15 0.05 20.89" stroke="#003E6B" stroke-miterlimit="10" stroke-width=".7"/>
  <path d="m204.5 121.1c5.17-0.99 12.65 4.65 17.63 13.73 5.07 9.52 4.83 19.18-0.56 22.3" stroke="#003E6B" stroke-miterlimit="10" stroke-width=".7"/>
  <path d="m207.5 120c5.8-1.04 13.35 4.95 18.54 14.8 5 9.34 4.78 18.5-0.4 21.47" stroke="#003E6B" stroke-miterlimit="10" stroke-width=".7"/>
  <path d="m123 181.5c5.37-0.3 11.42 6.72 14.67 14.95 2.24 5.9 2.02 10.99-0.91 13.41" stroke="#003E6B" stroke-miterlimit="10" stroke-width=".7"/>
  <path d="m106.7 201.3c1.79-4.13 5.64-5.24 9.51-0.41 3.48 4.88 4.42 9.83 2.6 13.81" stroke="#003E6B" stroke-miterlimit="10" stroke-width=".7"/>
  <path d="m106.7 202.1c1-0.29 2.2-1.89 3.09-1.89 1.64 0.06 1.98 1.1 1.64 3.61 0.26 1.96 2.41 1.88 3.34 2.58 0.93 0.88-0.63 2.85-0.29 3.7 0.93 1.18 2.73 1.05 2.85 2.57-0.2 1.03-2.39 0.45-3.7 0.2-1.05-0.2-1.98 0.47-2.23 1.83" stroke="#003E6B" stroke-miterlimit="10" stroke-width=".7"/>
  <path d="m196.1 176 9.86 11.02 12.77-0.07" stroke="#003E6B" stroke-width=".25"/>
  <path d="m213.4 219.7-66.44 0.37-23.53-10.81" stroke="#003E6B" stroke-width=".25"/>
  <path d="m147.4 217.8v-0.89h0.77v0.57s0.27 0.2 0.84 0.2c0.69 0 0.96-0.35 0.96-0.95 0-0.5-0.28-0.74-0.86-1.01-0.8-0.38-1.51-0.82-1.51-1.74 0-0.93 0.73-1.4 1.71-1.4 0.67 0 1.19 0.2 1.19 0.2v0.81h-0.7v-0.54s-0.27-0.09-0.63-0.09c-0.6 0-0.89 0.34-0.89 0.91 0 0.54 0.43 0.84 1.1 1.15 0.87 0.44 1.35 0.82 1.35 1.65 0 0.93-0.68 1.47-1.78 1.47-0.78 0-1.55-0.34-1.55-0.34z" fill="#002D4D"/>
  <path d="m151.5 215.4c0-2 0.86-2.77 2.12-2.77s2.13 0.77 2.13 2.77-0.87 2.77-2.13 2.77-2.12-0.77-2.12-2.77zm3.38 0c0-1.61-0.57-2.39-1.26-2.39h-0.07c-0.7 0-1.27 0.78-1.27 2.39s0.57 2.39 1.27 2.39h0.07c0.69 0 1.26-0.78 1.26-2.39z" fill="#002D4D"/>
  <path d="m156.7 213.1 0.84 3.51 0.13 0.63h0.03l1.06-4.52h0.75l0.98 3.9 0.13 0.62h0.03l1.07-4.52h0.51l-1.36 5.31h-0.84l-0.94-3.79-0.11-0.56h-0.03l-1.04 4.35h-0.85l-1.28-5.31h0.92v0.38z" fill="#002D4D"/>
  <path d="m165.9 212.7v0.76h-0.56v-0.31h-1.64v2.1h1.99v0.42h-1.99v1.93h0.41v0.41h-1.36v-0.41h0.21v-4.49h-0.21v-0.41h3.15z" fill="#002D4D"/>
  <path d="m166.5 218v-0.41h0.22v-4.49h-0.22v-0.41h1.27v0.41h-0.29v4.48h1.64v-0.35h0.56v0.76h-3.18v0.01z" fill="#002D4D"/>
  <path d="m172.9 218-0.51-1.74h-1.67l-0.52 1.74h-0.56l1.74-5.31h0.7l1.69 5.31h-0.87zm-1.37-4.49-0.75 2.4h1.47l-0.69-2.4h-0.03z" fill="#002D4D"/>
  <path d="m174.4 218v-0.41h0.22v-4.49h-0.22v-0.41h1.21v0.41h-0.22v2.18h0.26l1.54-2.18h-0.16v-0.41h1.07v0.41h-0.36l-1.6 2.24 1.74 2.24h0.27v0.41h-1.02l-1.55-2.32h-0.19v1.92h0.22v0.41h-1.21z" fill="#002D4D"/>
  <path d="m181.7 212.7v0.75h-0.56v-0.31h-1.57v1.89h1.84v0.42h-1.84v2.13h1.57v-0.35h0.56v0.76h-2.99v-0.41h0.21v-4.46h-0.21v-0.42h2.99z" fill="#002D4D"/>
  <path d="m187.9 213.6-1.48 3.51h-0.41l-1.54-3.51h-0.03v4.08h0.33v0.41h-1.08v-0.41h0.28v-4.49h-0.28v-0.41h1.01l1.73 4h0.03l1.64-4h1.01v0.41h-0.21v4.49h0.21v0.41h-1.07v-0.41h0.2v-4.08h-0.34z" fill="#002D4D"/>
  <path d="m190.1 218v-0.41h0.15v-4.49h-0.15v-0.41h1.75c1 0 1.56 0.38 1.56 1.34 0 0.53-0.27 0.9-0.8 1.09 0.74 0.15 1.15 0.59 1.15 1.36 0 0.93-0.65 1.52-1.71 1.52h-1.95zm1-4.9v1.82h0.76c0.53 0 0.8-0.34 0.8-0.9 0-0.61-0.34-0.91-1.01-0.91h-0.55v-0.01zm0 2.23v2.25h0.76c0.76 0 1.1-0.41 1.1-1.17 0-0.7-0.43-1.08-1.18-1.08h-0.68z" fill="#002D4D"/>
  <path d="m194.3 218v-0.41h0.21v-4.49h-0.21v-0.41h1.27v0.41h-0.29v4.48h1.64v-0.35h0.56v0.76h-3.18v0.01z" fill="#002D4D"/>
  <path d="m200.6 212.7v0.75h-0.56v-0.31h-1.57v1.89h1.84v0.42h-1.84v2.13h1.57v-0.35h0.56v0.76h-2.99v-0.41h0.21v-4.46h-0.21v-0.42h2.99z" fill="#002D4D"/>
  <path d="m205.9 213.6-1.48 3.51h-0.41l-1.54-3.51h-0.03v4.08h0.33v0.41h-1.08v-0.41h0.28v-4.49h-0.28v-0.41h1.01l1.73 4h0.03l1.64-4h1.01v0.41h-0.21v4.49h0.21v0.41h-1.07v-0.41h0.2v-4.08h-0.34z" fill="#002D4D"/>
  <path d="m208.1 184.1c0-2.07 0.86-3.13 2.34-3.13 0.84 0 1.54 0.29 1.54 0.29v1.04h-0.65v-0.7s-0.41-0.14-0.76-0.14c-0.99 0-1.69 0.77-1.69 2.48 0 1.72 0.7 2.52 1.69 2.52 0.63 0 1.39-0.35 1.39-0.35v0.49s-0.64 0.35-1.54 0.35c-1.46 0-2.32-0.99-2.32-2.85z" fill="#002D4D"/>
  <path d="m215.5 186.8-0.52-1.74h-1.66l-0.52 1.74h-0.56l1.74-5.31h0.69l1.69 5.31h-0.86zm-1.38-4.49-0.75 2.4h1.48l-0.69-2.4h-0.04z" fill="#002D4D"/>
  <path d="m217 186.8v-0.41h0.21v-4.49h-0.21v-0.41h1.64c1.07 0 1.76 0.49 1.76 1.66 0 1.13-0.69 1.72-1.76 1.72h-0.69v1.51h0.48v0.41h-1.43v0.01zm0.95-4.9v2.58h0.66c0.69 0 1.1-0.52 1.1-1.35 0-0.84-0.44-1.23-1.24-1.23h-0.52z" fill="#002D4D"/>
  <path d="m139.9 188.8 78.72-50.06" stroke="#003E6B" stroke-width=".25"/>
  <path d="m200.1 125c2.62 2.81-1.29 7.8-7.47 12.53-3.81 2.76-4.81 2.26-6.34 0.61l-49.17 35.57c-3.84 2.85-4.68 4.42-3.85 9.75" stroke="#003E6B" stroke-miterlimit="10" stroke-width=".7"/>
  <path d="m128.4 175.2c0.52-3.18 2.4-5.39 8.45-9.95 13.4-10.37 28.26-22.67 40.56-29.77" stroke="#003E6B" stroke-miterlimit="10" stroke-width=".7"/>
  <path d="m156.8 151.7c0.61 0.82 0 2.25-1.57 3.29l-21.97 16.26" stroke="#003E6B" stroke-miterlimit="10" stroke-width=".7"/>
  <path d="m124.1 200.1 6.05-3.84" stroke="#003E6B" stroke-width=".25"/>
  <path d="m198.4 53.68 10.6-2.86c0.83-0.45 1.7-0.34 2.3-0.06l5.59 3.41c1.57 1.11 0.4 5.02-0.78 5.85l-9.84 13.96-61.43 42.32-1.18 4.42-11.51 8.44-3.75 4.56-4.06 3.35-4.13 1.84-34.94 22.68-3.85 2.39h-3.07l-5.91-2.32-12.44 7.99-6.83 6.37-7.13-0.21-12.24 0.67-11.59 2.63c-1.7 0.15-2.21-1.6-1.63-2.19l4.39-4.39 9.01-13.41 29.71-16.96c-0.54-3.91 1.57-7.75 4.91-9.31l32.4-22.96 4.06-3.85 5.1-3.01 4-0.91 12.71-7.33 3.27-0.54 4.56 0.54 57.25-39.08 6.45-2.03z" fill="#DEF2FD" stroke="#003E6B" stroke-miterlimit="10" stroke-width=".7"/>
  <path d="m136.4 94.11 45.25-31.21 5.44 1.5" stroke="#003E6B" stroke-miterlimit="10" stroke-width=".7"/>
  <path d="m136.9 94.93 58.19-39.64 16.81-4.47" stroke="#003E6B" stroke-miterlimit="10" stroke-width=".7"/>
  <path d="m216.7 54.58-28.43 13.19" stroke="#003E6B" stroke-miterlimit="10" stroke-width=".7"/>
  <path d="m217 58.72-11.96 12.1-11.25 8.23-0.9-5.14-3.69-5.65" stroke="#003E6B" stroke-miterlimit="10" stroke-width=".7"/>
  <path d="m183.1 62.69 3.85 0.47" stroke="#003E6B" stroke-miterlimit="10" stroke-width=".7"/>
  <path d="m172.6 77.07c4.12 3.99 6.12 10.92 3.08 17.22" stroke="#003E6B" stroke-miterlimit="10" stroke-width=".7"/>
  <path d="m170.7 78.43c4.3 4.3 5.93 10.72 3.1 16.89" stroke="#003E6B" stroke-miterlimit="10" stroke-width=".7"/>
  <path d="m168.4 79.86c4.42 4.2 5.71 10.41 3.35 16.74" stroke="#003E6B" stroke-miterlimit="10" stroke-width=".7"/>
  <path d="m166.4 81.04c4.35 4.2 5.65 10.62 3.29 16.37" stroke="#003E6B" stroke-miterlimit="10" stroke-width=".7"/>
  <path d="m164.5 82.21c4.13 4.13 5.38 10.55 3.09 16.2" stroke="#003E6B" stroke-miterlimit="10" stroke-width=".7"/>
  <path d="m162.6 83.64c4.42 4.2 5.72 10.62 3.36 16.09" stroke="#003E6B" stroke-miterlimit="10" stroke-width=".7"/>
  <path d="m160.7 84.87c4.65 4.38 5.7 10.62 3.82 15.76" stroke="#003E6B" stroke-miterlimit="10" stroke-width=".7"/>
  <path d="m158.6 86.23c4.35 4.13 5.6 10.18 3.56 15.71" stroke="#003E6B" stroke-miterlimit="10" stroke-width=".7"/>
  <path d="m156.7 87.48c4.53 4.38 5.72 10.43 3.78 15.7" stroke="#003E6B" stroke-miterlimit="10" stroke-width=".7"/>
  <path d="m154.7 88.73c4.52 4.52 5.57 10.31 3.89 15.58" stroke="#003E6B" stroke-miterlimit="10" stroke-width=".7"/>
  <path d="m152.6 90.16c4.53 4.66 5.52 10.45 4.06 15.28" stroke="#003E6B" stroke-miterlimit="10" stroke-width=".7"/>
  <path d="m150.1 91.8c4.66 4.83 5.5 10.76 3.62 15.9" stroke="#003E6B" stroke-miterlimit="10" stroke-width=".7"/>
  <path d="m137.1 96.76c6.05 2.42 10.25 12.55 8.13 21.16" stroke="#003E6B" stroke-miterlimit="10" stroke-width=".7"/>
  <path d="m117.1 101.5c7.71 1.97 16.14 14.46 14.58 25.71" stroke="#003E6B" stroke-miterlimit="10" stroke-width=".7"/>
  <path d="m114.2 102.1c8.05 2.29 16.17 14.32 14.9 25.96" stroke="#003E6B" stroke-miterlimit="10" stroke-width=".7"/>
  <path d="m111.6 103.7c8.51 2.42 16.28 13.9 15.2 25.6" stroke="#003E6B" stroke-miterlimit="10" stroke-width=".7"/>
  <path d="m108.9 105.1c8.22 2.63 16.44 13.47 15.12 25.57" stroke="#003E6B" stroke-miterlimit="10" stroke-width=".7"/>
  <path d="m105.7 107.2c8.51 2.17 17.02 13.01 15.31 25.63" stroke="#003E6B" stroke-miterlimit="10" stroke-width=".7"/>
  <path d="m103.5 109.3 12.59 8.92" stroke="#003E6B" stroke-width=".25"/>
  <path d="m114.9 121.8 3.34 1.57" stroke="#003E6B" stroke-width=".25"/>
  <path d="m106.6 111.2-23.23 27.46" stroke="#003E6B" stroke-width=".25"/>
  <path d="m66.97 134.7c5.97-2.7 12.46 2.54 16.24 9.71 3.75 7.17 3.67 14.88-1.78 17.75" stroke="#003E6B" stroke-miterlimit="10" stroke-width=".7"/>
  <path d="m65.91 136.8c4.41-2.49 10.75 2.29 13.9 9.59 2.92 6.83 2.92 13.55-1.85 15.18" stroke="#003E6B" stroke-miterlimit="10" stroke-width=".7"/>
  <path d="m64.74 138.6c4.13-2.35 9.97 2.79 13.08 9.62 2.79 6.42 2.03 10.68-1.18 12.18" stroke="#003E6B" stroke-miterlimit="10" stroke-width=".7"/>
  <path d="m65.76 143.6 9.91 5.2-18.45 19.56" stroke="#003E6B" stroke-width=".35"/>
  <path d="m56.11 167.7 19.42-19.44 0.45-0.66-5.16-6.32-3.17 1.18-18.36 10.37 6.82 14.87z" stroke="#003E6B" stroke-width=".35"/>
  <path d="m34.41 168.5 7.56-12.89 1.12-0.31" stroke="#003E6B" stroke-width=".35"/>
  <path d="m22.01 177.6 14.8-9.95 15.28 4.36" stroke="#003E6B" stroke-width=".35"/>
  <path d="m22.22 178 8.3-3.57c3.4-1.42 11.57-2.13 16.77-0.54" stroke="#003E6B" stroke-width=".35"/>
  <path d="m42.17 166.6 8.92 0.52" stroke="#003E6B" stroke-width=".25"/>
  <path d="m56.93 166.1 2.79-0.83" stroke="#003E6B" stroke-width=".25"/>
  <path d="m51.51 153.1 8.45 8.86" stroke="#003E6B" stroke-width=".25"/>
  <path d="m59.28 154.7-0.87-0.58-1.35-3.04 1-2.27 2.04-1.29 3.42 1.43 1.25 2.69-1.64 2.48-3.85 0.58z" stroke="#003E6B" stroke-width=".25"/>
  <path d="m48.32 161.6c1.1 0 1.52-0.62 1.52-1.44-0.21-0.83-0.97-1.24-1.73-1.03-0.84 0.2-1.25 0.89-1.12 1.58 0.14 0.62 0.67 0.89 1.33 0.89z" stroke="#003E6B" stroke-width=".5"/>
  <path d="m193 80.01-9.84 6.49-0.15-1.49 9.43-6.63" stroke="#003E6B" stroke-miterlimit="10" stroke-width=".7"/>
  <path d="m7.16 142.4h41.97l5.91 5.73" stroke="#003E6B" stroke-width=".25"/>
  <path d="m63.52 112.7 26.23 3.11 5.21-5.68" stroke="#003E6B" stroke-width=".25"/>
  <path d="m97.8 82.91h23.11l19.05 6.24" stroke="#003E6B" stroke-width=".25"/>
  <path d="m70.96 163.8 15.06 13.04 26.6-0.83" stroke="#003E6B" stroke-width=".25"/>
  <path d="m7.76 136.6 1.33-0.62h0.54v4.91h0.63v0.41h-1.87v-0.41h0.56v-4.29l-0.99 0.54-0.2-0.54z" fill="#002D4D"/>
  <path d="m12.87 138.5c-0.6-0.25-1.12-0.7-1.12-1.45 0-0.74 0.64-1.19 1.46-1.19 0.94 0 1.5 0.56 1.5 1.26 0 0.6-0.38 1.06-1.01 1.37 0.71 0.31 1.21 0.78 1.21 1.47 0 0.81-0.68 1.35-1.7 1.35-0.93 0-1.67-0.47-1.67-1.4 0-0.64 0.53-1.09 1.33-1.41zm0.34 0.15c-0.72 0.35-1.1 0.75-1.1 1.31s0.47 0.94 1.1 0.94h0.04c0.66 0 1.06-0.38 1.06-0.95 0-0.58-0.53-0.95-1.1-1.3zm0.11-0.37c0.56-0.31 0.85-0.67 0.85-1.17 0-0.56-0.41-0.9-0.96-0.9h-0.03c-0.56 0-0.91 0.34-0.91 0.84 0 0.56 0.5 0.92 1.05 1.23z" fill="#002D4D"/>
  <path d="m15.98 141.2v-0.41h0.22v-4.49h-0.22v-0.41h1.21v0.41h-0.22v2.18h0.26l1.54-2.18h-0.16v-0.41h1.07v0.41h-0.36l-1.6 2.24 1.74 2.24h0.27v0.41h-1.02l-1.55-2.32h-0.19v1.92h0.22v0.41h-1.21z" fill="#002D4D"/>
  <path d="m23.39 138.7h1.99v0.42h-1.99v1.93h0.41v0.41h-1.36v-0.41h0.21v-4.49h-0.21v-0.41h3.15v0.76h-0.56v-0.31h-1.64v2.1z" fill="#002D4D"/>
  <path d="m25.94 138.8c0-2 0.86-2.77 2.12-2.77s2.13 0.77 2.13 2.77-0.87 2.77-2.13 2.77-2.12-0.77-2.12-2.77zm3.39 0c0-1.61-0.57-2.39-1.26-2.39h-0.07c-0.7 0-1.27 0.78-1.27 2.39s0.57 2.39 1.27 2.39h0.07c0.69 0 1.26-0.78 1.26-2.39z" fill="#002D4D"/>
  <path d="m30.79 141.4v-0.41h0.21v-4.49h-0.21v-0.41h1.27v0.41h-0.29v4.48h1.64v-0.35h0.56v0.76h-3.18v0.01z" fill="#002D4D"/>
  <path d="m34.6 141.4v-0.41h0.15v-4.49h-0.15v-0.41h1.71c1.32 0 2.25 0.76 2.25 2.6 0 1.85-0.93 2.72-2.25 2.72h-1.71v-0.01zm0.92-4.9v4.48h0.69c1.06 0 1.59-1.04 1.59-2.37 0-1.4-0.63-2.11-1.76-2.11h-0.52z" fill="#002D4D"/>
  <path d="m39.66 141.2v-0.41h0.21v-4.49h-0.21v-0.41h1.04l2.21 4.43h0.03v-4.01h-0.31v-0.41h1.05v0.41h-0.21v4.91h-0.7l-2.31-4.6h-0.03v4.18h0.38v0.41h-1.15v-0.01z" fill="#002D4D"/>
  <path d="m44.62 141.2v-0.41h0.21v-4.49h-0.21v-0.41h1.21v0.41h-0.22v4.49h0.22v0.41h-1.21z" fill="#002D4D"/>
  <path d="m46.55 141.2v-0.41h0.15v-4.49h-0.15v-0.41h1.75c1 0 1.56 0.38 1.56 1.34 0 0.53-0.27 0.9-0.8 1.09 0.74 0.15 1.15 0.59 1.15 1.36 0 0.93-0.65 1.52-1.71 1.52h-1.95zm1-4.9v1.82h0.76c0.53 0 0.8-0.34 0.8-0.9 0-0.61-0.34-0.91-1.01-0.91h-0.55v-0.01zm0 2.23v2.25h0.76c0.76 0 1.1-0.41 1.1-1.17 0-0.7-0.43-1.08-1.18-1.08h-0.68z" fill="#002D4D"/>
  <path d="m63.48 108.2c0-2.07 0.86-3.13 2.34-3.13 0.84 0 1.54 0.29 1.54 0.29v1.04h-0.65v-0.7s-0.41-0.14-0.76-0.14c-0.99 0-1.69 0.77-1.69 2.48 0 1.72 0.7 2.52 1.69 2.52 0.63 0 1.39-0.35 1.39-0.35v0.49s-0.64 0.35-1.54 0.35c-1.46 0-2.32-0.99-2.32-2.85z" fill="#002D4D"/>
  <path d="m67.98 108.1c0-2 0.86-2.77 2.12-2.77s2.13 0.77 2.13 2.77-0.87 2.77-2.13 2.77-2.12-0.77-2.12-2.77zm3.39 0c0-1.61-0.57-2.39-1.26-2.39h-0.07c-0.7 0-1.27 0.78-1.27 2.39s0.57 2.39 1.27 2.39h0.07c0.69 0 1.26-0.78 1.26-2.39z" fill="#002D4D"/>
  <path d="m72.83 110.8v-0.41h0.21v-4.49h-0.21v-0.41h1.27v0.41h-0.29v4.48h1.64v-0.35h0.56v0.76h-3.18v0.01z" fill="#002D4D"/>
  <path d="m76.28 110.7v-0.41h0.21v-4.49h-0.21v-0.41h1.27v0.41h-0.29v4.48h1.64v-0.35h0.56v0.76h-3.18v0.01z" fill="#002D4D"/>
  <path d="m82.62 110.7-0.52-1.74h-1.67l-0.52 1.74h-0.56l1.74-5.31h0.69l1.69 5.31h-0.85zm-1.38-4.61-0.75 2.4h1.47l-0.69-2.4h-0.03z" fill="#002D4D"/>
  <path d="m83.9 110.7v-0.41h0.22v-4.49h-0.22v-0.41h1.64c1.07 0 1.76 0.44 1.76 1.51 0 0.69-0.41 1.2-1.01 1.44l1.06 1.95h0.27v0.41h-0.8l-1.21-2.26h-0.63v1.85h0.38v0.41h-1.46zm1.02-4.9v2.22h0.63c0.76 0 1.14-0.45 1.14-1.17 0-0.73-0.45-1.05-1.24-1.05h-0.53z" fill="#002D4D"/>
  <path d="m98.31 81.7v-5.79h3.18v0.61h-2.54v1.98h2.28v0.57h-2.28v2.02h0.43v0.61h-1.07z" fill="#002D4D"/>
  <path d="m104.9 75.91v0.61h-2.22v1.82h2.01v0.57h-2.01v2.12h1.92v-0.48h0.52v1.08h-3.22v-0.61h0.21v-4.5h-0.21v-0.61h3z" fill="#002D4D"/>
  <path d="m108.5 75.91v0.61h-2.22v1.82h2.01v0.57h-2.01v2.12h1.92v-0.48h0.52v1.08h-3.22v-0.61h0.21v-4.5h-0.21v-0.61h3z" fill="#002D4D"/>
  <path d="m109.3 81.63v-0.61h0.21v-4.5h-0.21v-0.61h1.5c1.44 0 2.4 0.83 2.4 2.8s-0.96 2.92-2.4 2.92h-1.5zm0.78-5.11v4.5h0.66c1.15 0 1.72-1.09 1.72-2.48 0-1.46-0.68-2.02-1.88-2.02h-0.5z" fill="#002D4D"/>
  <path d="m116.4 75.91v0.61h-1.82v1.82h1.74v0.57h-1.74v2.12h1.64v-0.48h0.56v1.08h-2.98v-0.61h0.21v-4.5h-0.21v-0.61h2.6z" fill="#002D4D"/>
  <path d="m117.2 81.63v-0.61h0.22v-4.5h-0.22v-0.61h1.44c0.93 0 1.62 0.54 1.62 1.61 0 0.7-0.38 1.2-0.94 1.45l0.93 2.05h0.27v0.61h-0.74l-1.14-2.45h-0.51v1.85h0.38v0.61h-1.31v-0.01zm0.93-5.11v2.09h0.49c0.67 0 0.95-0.45 0.95-1.08 0-0.67-0.38-1.01-1.14-1.01h-0.3z" fill="#002D4D"/>
  <path d="m88.18 174.9v-0.83h0.63v0.63s0.35 0.28 1.04 0.28c0.78 0 1.13-0.42 1.13-1.12 0-0.57-0.36-0.88-1.06-1.22-0.93-0.45-1.57-0.95-1.57-1.88 0-0.75 0.67-1.38 1.6-1.38 0.69 0 1.25 0.28 1.25 0.28v0.75h-0.56v-0.57s-0.35-0.14-0.8-0.14c-0.63 0-0.98 0.42-0.98 1.06 0 0.69 0.52 1.1 1.3 1.52 1 0.56 1.45 1.01 1.45 1.79 0 0.83-0.7 1.46-1.76 1.46-0.93 0-1.67-0.41-1.67-0.41z" fill="#002D4D"/>
  <path d="m95.09 169.5v0.66h-1.97v1.96h1.75v0.42h-1.75v2.4h1.71v-0.48h0.56v0.94h-3.03v-0.41h0.21v-5.14h-0.21v-0.35h2.73z" fill="#002D4D"/>
  <path d="m95.77 172.4c0-1.99 0.86-3.05 2.19-3.05 0.69 0 1.25 0.29 1.25 0.29v0.92h-0.56v-0.69s-0.28-0.14-0.69-0.14c-0.99 0-1.58 0.77-1.58 2.48 0 1.72 0.59 2.52 1.45 2.52 0.63 0 1.39-0.35 1.39-0.35v0.42s-0.64 0.35-1.54 0.35c-1.27 0-1.91-1.06-1.91-2.75z" fill="#002D4D"/>
  <path d="m99.32 169.5h3.41v0.7h-0.56v-0.35h-0.84v5.14h0.28v0.41h-1.18v-0.41h0.28v-5.14h-0.9v0.35h-0.48v-0.7h-0.01z" fill="#002D4D"/>
  <path d="m103.1 175.4v-0.41h0.21v-5.14h-0.21v-0.35h0.83v0.35h-0.21v5.14h0.21v0.41h-0.83z" fill="#002D4D"/>
  <path d="m104.6 172.4c0-2 0.87-3.06 2.09-3.06" fill="#002D4D"/>
  <path d="m109.2 175.4v-0.41h0.21v-5.14h-0.21v-0.35h0.86l2.48 4.65h0.03v-4.3h-0.34v-0.35h1.11v0.35h-0.21v5.55h-0.63l-2.55-4.92h-0.04v4.51h0.32v0.41h-1.03z" fill="#002D4D"/>
  <path d="m122.4 98.41 12.59 10.84" stroke="#003E6B" stroke-width=".25"/>
  <path d="m124.6 97.2 10.31 14.57" stroke="#003E6B" stroke-width=".25"/>
</svg>