<svg xmlns="http://www.w3.org/2000/svg" width="298" height="298" fill="none" viewBox="0 0 298 298">
<!-- SVG created with Arrow, by QuiverAI (https://quiver.ai) -->
  <path d="m297.3 0.61h-296.7v296.8h296.7v-296.8z" fill="#DEF3FA"/>
  <path d="m0.65 33.68h296.4" stroke="#004171" stroke-dasharray="0.1 3" stroke-linecap="round" stroke-linejoin="round" stroke-width=".5"/>
  <path d="m0.65 62.61h296.4" stroke="#004171" stroke-dasharray="0.1 3" stroke-linecap="round" stroke-linejoin="round" stroke-width=".5"/>
  <path d="m0.65 110.1h296.4" stroke="#004171" stroke-dasharray="0.1 3" stroke-linecap="round" stroke-linejoin="round" stroke-width=".5"/>
  <path d="m0.65 148.2h296.4" stroke="#004171" stroke-dasharray="0.1 3" stroke-linecap="round" stroke-linejoin="round" stroke-width=".5"/>
  <path d="m0.65 186.2h296.4" stroke="#004171" stroke-dasharray="0.1 3" stroke-linecap="round" stroke-linejoin="round" stroke-width=".5"/>
  <path d="m0.65 224.3h296.4" stroke="#004171" stroke-dasharray="0.1 3" stroke-linecap="round" stroke-linejoin="round" stroke-width=".5"/>
  <path d="m0.65 263h296.4" stroke="#004171" stroke-dasharray="0.1 3" stroke-linecap="round" stroke-linejoin="round" stroke-width=".5"/>
  <path d="m34.81 0.61v296.8" stroke="#004171" stroke-dasharray="0.1 3" stroke-linecap="round" stroke-linejoin="round" stroke-width=".5"/>
  <path d="m72.87 0.61v296.8" stroke="#004171" stroke-dasharray="0.1 3" stroke-linecap="round" stroke-linejoin="round" stroke-width=".5"/>
  <path d="m110.9 0.61v296.8" stroke="#004171" stroke-dasharray="0.1 3" stroke-linecap="round" stroke-linejoin="round" stroke-width=".5"/>
  <path d="m149 0.61v296.8" stroke="#004171" stroke-dasharray="0.1 3" stroke-linecap="round" stroke-linejoin="round" stroke-width=".5"/>
  <path d="m187.1 0.61v296.8" stroke="#004171" stroke-dasharray="0.1 3" stroke-linecap="round" stroke-linejoin="round" stroke-width=".5"/>
  <path d="m225.1 0.61v296.8" stroke="#004171" stroke-dasharray="0.1 3" stroke-linecap="round" stroke-linejoin="round" stroke-width=".5"/>
  <path d="m263.8 0.61v296.8" stroke="#004171" stroke-dasharray="0.1 3" stroke-linecap="round" stroke-linejoin="round" stroke-width=".5"/>
  <path d="m214.1 115.8c1.47 0.95 2.22 4.28 0.45 8.24-0.67 1.66-1.3 3.49-2.56 4.49l-167.3 122.2c-4.73 3.67-14.05-3.96-18.97-11.3-5.29-7.9-6.31-16.05-1.97-19.31l161.7-121c3.39-2.7 8.75-5.62 12.02-4.57 3.27 1.04 3.03 7.4 1.37 9.51l15.27 11.79z" fill="#DEF3FA" stroke="#004171" stroke-miterlimit="10" stroke-width=".91"/>
  <path d="m40.01 247.9c-4.57-1.74-10.14-9.02-12.84-14.8-2.55-5.45-3.36-11.15 0.14-12.67l162.2-122.3c3.03-2.06 7.63-3.35 8.98-1.21 1.03 1.71 0.29 5.83-1.62 7.63l16.66 11.62 1.88 1.99c1.22 1.61-0.32 6.42-2.66 8.44l-167.6 121.3c-1.61 1.27-3.92 0.5-5.2-0.06z" fill="#C5E1F3" stroke="#004171" stroke-miterlimit="10" stroke-width=".91"/>
  <path d="m196 124.7 19.2-14.44 1.9 3.49c1.94 3.49-1.16 8.95-3.7 10.78l-168.8 123.3c-4.66 3.31-13.63-4.2-17.78-11.26-4.99-8.51-5.74-14.84-1.95-17.32l162.5-122.2c3.71-2.85 9.52-3.26 11.59-1 2.07 2.25 1.22 7.13-1.84 10l-4.67 3.93 3.55 4.21" fill="#C5E1F3"/>
  <path d="m196 124.7 19.2-14.44 1.9 3.49c1.94 3.49-1.16 8.95-3.7 10.78l-168.8 123.3c-4.66 3.31-13.63-4.2-17.78-11.26-4.99-8.51-5.74-14.84-1.95-17.32l162.5-122.2c3.71-2.85 9.52-3.26 11.59-1 2.07 2.25 1.22 7.13-1.84 10l-4.67 3.93 3.55 4.21" stroke="#004171" stroke-miterlimit="10" stroke-width=".91"/>
  <path d="m24.86 220c2.79 0.07 4.93 1.72 5.31 4.62" stroke="#004171" stroke-miterlimit="10" stroke-width=".91"/>
  <path d="m27.14 218.7 17.61-12.76 1.04 1.48" stroke="#004171" stroke-miterlimit="10" stroke-width=".91"/>
  <path d="m49.08 205.9c-3.59 3.4-3.1 11.56 1.98 18.71 5.06 7.13 12.1 8.19 15.67 5.53" stroke="#004171" stroke-miterlimit="10" stroke-width=".91"/>
  <path d="m50.31 206.8 137.4-109.6" stroke="#004171" stroke-miterlimit="10" stroke-width=".45"/>
  <path d="m52.11 208 136.1-109" stroke="#004171" stroke-miterlimit="10" stroke-width=".45"/>
  <path d="m53.42 210.1 135.5-110.3" stroke="#004171" stroke-miterlimit="10" stroke-width=".45"/>
  <path d="m54.42 212.4 134.8-110.5" stroke="#004171" stroke-miterlimit="10" stroke-width=".45"/>
  <path d="m55.56 214.9 134.5-110.9" stroke="#004171" stroke-miterlimit="10" stroke-width=".45"/>
  <path d="m56.98 217.8 134.2-111.7" stroke="#004171" stroke-miterlimit="10" stroke-width=".45"/>
  <path d="m59.71 221.2 133.6-111.1" stroke="#004171" stroke-miterlimit="10" stroke-width=".45"/>
  <path d="m62.47 223.4 133.4-109.7" stroke="#004171" stroke-miterlimit="10" stroke-width=".45"/>
  <path d="m65.06 224.9 132.5-109.1" stroke="#004171" stroke-miterlimit="10" stroke-width=".45"/>
  <path d="m68.23 225.1 130.1-107.2" stroke="#004171" stroke-miterlimit="10" stroke-width=".45"/>
  <path d="m71.12 224.4 127.9-104.9" stroke="#004171" stroke-miterlimit="10" stroke-width=".45"/>
  <path d="m75.09 222.8 124.4-101.7" stroke="#004171" stroke-miterlimit="10" stroke-width=".45"/>
  <path d="m79.06 220.1 121.1-97.41" stroke="#004171" stroke-miterlimit="10" stroke-width=".45"/>
  <path d="m202.8 91.99c4.07-4.93 4.36-11.44 6.74-13.92 4.28-4.4 29.29-20.88 49.7-27.75 8.37-2.97 14.71-0.18 17.88 5.53 3.36 6.04 3 11.72-1.16 17.86-8.05 12.01-24.77 26.46-36.76 35.39-2.08 1.66-4.99 1.84-7.1 1.17l-23.32-14.31c-2.38-1.1-4.25-1.85-5.98-3.97z" fill="#DEF3FA" stroke="#004171" stroke-miterlimit="10" stroke-width=".91"/>
  <path d="m208.9 81.11c4.33-3.7 11.09-3.56 18.47 2.97 8.4 7.63 13.97 18.53 9.5 26.05" stroke="#004171" stroke-miterlimit="10" stroke-width=".91"/>
  <path d="m207.2 83.28c3.71-3.89 10.15-3.61 17.92 3.42 8.66 8.06 12.03 16.71 8.51 23.41" stroke="#004171" stroke-miterlimit="10" stroke-width=".91"/>
  <path d="m205.3 85.62c4.4-3.71 11.23-1.88 18.37 5.18 8.05 7.85 10.3 15.56 6.02 21.91" stroke="#004171" stroke-miterlimit="10" stroke-width=".91"/>
  <path d="m203.2 87.91c4.93-3.89 10.74-2.07 17.74 5.57 6.76 7.26 8.31 15.29 3.87 21.62-2.07 2.71-8.24 1.24-9.35-1.42" stroke="#004171" stroke-miterlimit="10" stroke-width=".91"/>
  <path d="m211.1 94.16c3.49-2.45 7.37 1.64 9.09 4.28 3.17 4.9 2 9.77-0.43 11.62l-55 44.56-10.66 9.28c-3.36 3.21-10.43 4.87-17.71-5.36-5.29-7.23-4.15-13.68-0.66-16.16l75.37-48.22z" fill="#DEF3FA" stroke="#004171" stroke-miterlimit="10" stroke-width=".91"/>
  <path d="m134.2 143.5c3.71-2.81 9.88-0.8 15.1 5.93 5.71 7.26 5.52 14.06 1.97 16.91" stroke="#004171" stroke-miterlimit="10" stroke-width=".45"/>
  <path d="m139.2 140.5c4.4-1.48 9.69 2.48 13.47 8.21 4.03 6.11 4.03 13.01 1.03 15.71" stroke="#004171" stroke-miterlimit="10" stroke-width=".45"/>
  <path d="m144.8 136.7c4.12-0.94 8.79 2.89 12.41 8.62 3.49 5.52 3.94 11.88 1.24 14.28" stroke="#004171" stroke-miterlimit="10" stroke-width=".45"/>
  <path d="m150.2 133.1c4.76-1.04 9.42 4 12.27 9.11 3.3 5.96 3.4 11.79 0.39 14.7" stroke="#004171" stroke-miterlimit="10" stroke-width=".45"/>
  <path d="m157.5 127.8c4.66-2.25 10.37 2.68 13.57 8.64 3.29 6.18 3.43 12.29 0.58 14.11" stroke="#004171" stroke-miterlimit="10" stroke-width=".45"/>
  <path d="m164 122.6c5.29-2.49 11.5 2.84 14.67 9.43 2.82 6.11 2.75 11.82-0.48 14.27" stroke="#004171" stroke-miterlimit="10" stroke-width=".45"/>
  <path d="m172.2 115.8c5.71-3.04 12.4 2.07 15.89 9.97 2.92 6.73 2.17 11.47-0.37 13.65" stroke="#004171" stroke-miterlimit="10" stroke-width=".91"/>
  <path d="m176.1 112.4c6.03-2.19 12.66 3.01 16.22 11.66 2.57 6.28 2.12 11.02-0.57 13.39" stroke="#004171" stroke-miterlimit="10" stroke-width=".91"/>
  <path d="m220.9 73.81 42.91-21.65c4.16-1.95 8.35-1.44 11.45 2.65 3.97 5.25 2.25 11.53-0.51 16.05-6.5 10.59-16.34 20.85-32.61 32.4" stroke="#004171" stroke-miterlimit="10" stroke-width=".45"/>
  <path d="m229.1 73.25 43.7-19.8" stroke="#004171" stroke-miterlimit="10" stroke-width=".45"/>
  <path d="m234 86.98 3.64 1.25-3.64 20.43" stroke="#004171" stroke-miterlimit="10" stroke-width=".45"/>
  <path d="m236.6 89.98 4.03 5.33-3.59 11.2" stroke="#004171" stroke-miterlimit="10" stroke-width=".45"/>
  <path d="m239.6 96.4 1.94 2.7-2.25 5.52" stroke="#004171" stroke-miterlimit="10" stroke-width=".45"/>
  <path d="m240.6 108.2 3.78-3.03 2.79-15.09 3.03-11.71" stroke="#004171" stroke-miterlimit="10" stroke-width=".45"/>
  <path d="m246.4 103.3 3.2-12.14 3.94-15.05" stroke="#004171" stroke-miterlimit="10" stroke-width=".45"/>
  <path d="m251.6 98.92 3.62-11.78 4.29-14.41" stroke="#004171" stroke-miterlimit="10" stroke-width=".45"/>
  <path d="m256.9 94.45 3.62-10.14 6.17-15.39" stroke="#004171" stroke-miterlimit="10" stroke-width=".45"/>
  <path d="m262.4 89.28 4.22-10.14 7.03-20.81" stroke="#004171" stroke-miterlimit="10" stroke-width=".45"/>
  <path d="m267.4 83.95 3.68-7.88 6.17-19.05" stroke="#004171" stroke-miterlimit="10" stroke-width=".45"/>
  <path d="m140.4 77.09h43.67l13.89 16.03" stroke="#004171" stroke-miterlimit="10" stroke-width=".3"/>
  <path d="m199.8 44.76h38.32l11.62 10.36" stroke="#004171" stroke-miterlimit="10" stroke-width=".3"/>
  <path d="m185.8 148.7 15.15 16.17h24.2" stroke="#004171" stroke-miterlimit="10" stroke-width=".3"/>
  <path d="m127.6 193.1 16.58 16.74h63.91" stroke="#004171" stroke-miterlimit="10" stroke-width=".3"/>
  <path d="m155.4 94.44 18.97 0.35 10.76-1.29 2.25-1.9" stroke="#004171" stroke-miterlimit="10" stroke-width=".3"/>
  <path d="m141.4 69.63h2.52c1.48 0 2.22 0.74 2.22 2.15 0 1.28-0.73 2.14-2.41 2.14h-1.2v2.39h-1.13v-6.68zm2.16 3.39c1.07 0 1.47-0.57 1.47-1.31 0-0.83-0.48-1.22-1.34-1.22h-1.16v2.54l1.03-0.01z" fill="#00112C"/>
  <path d="m147.1 69.63h1.06v6.68h-1.06v-6.68z" fill="#00112C"/>
  <path d="m149.2 75.95 0.37-0.79c0.46 0.29 0.99 0.45 1.54 0.46 0.81 0 1.18-0.4 1.18-1.05 0-0.59-0.45-0.85-1.09-1.07-1.08-0.38-1.77-0.79-1.77-1.93 0-1.09 0.9-1.86 2.23-1.86 0.55-0.01 1.1 0.15 1.56 0.46l-0.34 0.79c-0.39-0.29-0.86-0.44-1.34-0.45-0.68 0-1.1 0.38-1.1 1s0.52 0.86 1.21 1.1c1.05 0.39 1.71 0.82 1.71 1.85 0 1.22-0.89 1.95-2.26 1.95-0.66 0.02-1.31-0.14-1.9-0.46z" fill="#00112C"/>
  <path d="m155.6 70.51h-1.86v-0.88h4.78v0.88h-1.86v5.8h-1.06v-5.8z" fill="#00112C"/>
  <path d="m158.8 72.97c0-2.11 0.99-3.42 2.81-3.42 1.81 0 2.62 1.34 2.62 3.32 0 2.2-0.95 3.52-2.77 3.52s-2.66-1.34-2.66-3.42zm4.34-0.04c0-1.75-0.61-2.57-1.61-2.57-1.01 0-1.67 0.85-1.67 2.55s0.65 2.66 1.67 2.66c1.03 0 1.61-0.9 1.61-2.64z" fill="#00112C"/>
  <path d="m165.2 69.63h1.25l2.18 4.38c0.16 0.36 0.3 0.73 0.4 1.11h0.04c-0.02-0.41-0.04-0.83-0.04-1.19v-4.3h0.94v6.68h-1.24l-2.18-4.35c-0.18-0.38-0.31-0.75-0.41-1.07h-0.03c0.01 0.38 0.03 0.75 0.03 1.16v4.26h-0.94v-6.68z" fill="#00112C"/>
  <path d="m172.6 69.63h1.99c1.46 0 2.27 0.63 2.27 1.94 0.03 0.89-0.56 1.69-1.44 1.9l1.8 2.84h-1.23l-1.57-2.68h-0.78v2.68h-1.04v-6.68zm1.86 3.18c0.99 0 1.35-0.53 1.35-1.22 0-0.8-0.47-1.12-1.34-1.12h-0.83v2.34h0.82z" fill="#00112C"/>
  <path d="m177.4 72.97c0-2.11 1-3.42 2.81-3.42 1.82 0 2.62 1.34 2.62 3.32 0 2.2-0.95 3.52-2.77 3.52s-2.66-1.34-2.66-3.42zm4.35-0.04c0-1.75-0.62-2.57-1.62-2.57s-1.67 0.85-1.67 2.55 0.65 2.66 1.68 2.66 1.61-0.9 1.61-2.64z" fill="#00112C"/>
  <path d="m183.5 69.63h1.8c2.2 0 3.27 1.05 3.27 3.23 0 2.17-1.13 3.45-3.3 3.45h-1.77v-6.68zm1.67 5.84c1.63 0 2.35-0.91 2.35-2.58 0-1.66-0.77-2.43-2.28-2.43h-0.7v5.01h0.63z" fill="#00112C"/>
  <path d="m156.4 92.71 0.36-0.79c0.47 0.29 1 0.45 1.55 0.46 0.81 0 1.18-0.4 1.18-1.05 0-0.59-0.46-0.85-1.09-1.07-1.09-0.38-1.77-0.79-1.77-1.93 0-1.09 0.9-1.86 2.23-1.86 0.55-0.01 1.1 0.15 1.56 0.46l-0.34 0.79c-0.39-0.29-0.86-0.44-1.35-0.45-0.68 0-1.09 0.38-1.09 1s0.52 0.86 1.21 1.1c1.05 0.39 1.71 0.82 1.71 1.85 0 1.22-0.89 1.95-2.26 1.95-0.66 0.02-1.31-0.14-1.9-0.46z" fill="#00112C"/>
  <path d="m161.7 86.53h3.58v0.85h-2.55v2.01h2.33v0.8h-2.33v2.07h2.63v0.85h-3.66v-6.58z" fill="#00112C"/>
  <path d="m167.7 86.53h1.21l1.94 6.59h-1.12l-0.64-2.41h-1.81l-0.73 2.41h-1.06l2.21-6.59zm1.16 3.38-0.65-2.56-0.75 2.56h1.4z" fill="#00112C"/>
  <path d="m171.8 86.53h1.01v5.73h2.58v0.86h-3.59v-6.59z" fill="#00112C"/>
  <path d="m200.8 37.34h2.26c1.45 0 2.17 0.58 2.17 1.72 0.01 0.72-0.52 1.35-1.25 1.47 0.85 0.15 1.44 0.69 1.44 1.63 0 1.22-0.88 1.86-2.37 1.86h-2.25v-6.68zm2.15 2.79c0.86 0 1.25-0.38 1.25-0.99 0-0.68-0.46-0.97-1.33-0.97h-1.02v1.96h1.1zm0.07 3.07c1.01 0 1.41-0.45 1.41-1.15 0-0.8-0.55-1.16-1.53-1.16h-1.05v2.31h1.17z" fill="#00112C"/>
  <path d="m206.5 37.34h1.02v5.8h2.57v0.88h-3.59v-6.68z" fill="#00112C"/>
  <path d="m210.8 37.34h1.06v6.68h-1.06v-6.68z" fill="#00112C"/>
  <path d="m213 37.34h1.25l2.18 4.38c0.17 0.36 0.3 0.73 0.41 1.11h0.03c-0.01-0.41-0.03-0.83-0.03-1.19v-4.3h0.93v6.68h-1.24l-2.18-4.35c-0.18-0.38-0.3-0.75-0.4-1.07h-0.03c0.01 0.38 0.03 0.76 0.03 1.16v4.26h-0.94l-0.01-6.68z" fill="#00112C"/>
  <path d="m219.1 37.34h1.8c2.2 0 3.27 1.05 3.27 3.23s-1.13 3.45-3.3 3.45h-1.77v-6.68zm1.67 5.84c1.63 0 2.35-0.91 2.35-2.58s-0.77-2.43-2.28-2.43h-0.7v5.01h0.63z" fill="#00112C"/>
  <path d="m225.2 40.72c0-2.06 0.95-3.47 2.79-3.47 0.72-0.04 1.42 0.25 1.9 0.8l-0.56 0.68c-0.33-0.42-0.83-0.67-1.36-0.68-1.19 0-1.71 1.16-1.71 2.6 0 1.53 0.6 2.67 1.79 2.67 0.6-0.01 1.16-0.31 1.53-0.81l0.5 0.7c-0.53 0.67-1.32 1.05-2.16 1.04-1.83 0-2.72-1.49-2.72-3.53z" fill="#00112C"/>
  <path d="m232.2 37.34h1.21l2.06 6.68h-1.11l-0.72-2.52h-1.96l-0.78 2.52h-1.06l2.36-6.68zm1.21 3.37-0.7-2.67-0.81 2.67h1.51z" fill="#00112C"/>
  <path d="m235.9 37.34h2.26c1.48 0 2.22 0.74 2.22 2.15 0 1.28-0.73 2.14-2.41 2.14h-1.06v2.39h-1.01v-6.68zm2.09 3.4c1.07 0 1.47-0.57 1.47-1.31 0-0.83-0.48-1.22-1.34-1.22h-1.21v2.54l1.08-0.01z" fill="#00112C"/>
  <path d="m201.2 163.1 0.36-0.8c0.47 0.3 1 0.46 1.55 0.47 0.81 0 1.18-0.4 1.18-1.05 0-0.59-0.46-0.85-1.09-1.07-1.08-0.38-1.77-0.79-1.77-1.93 0-1.09 0.9-1.86 2.23-1.86 0.56-0.01 1.1 0.15 1.56 0.46l-0.34 0.79c-0.39-0.29-0.86-0.44-1.34-0.45-0.68 0-1.1 0.38-1.1 1s0.52 0.86 1.21 1.1c1.05 0.39 1.71 0.82 1.71 1.85 0 1.22-0.89 1.95-2.26 1.95-0.66 0.02-1.32-0.14-1.9-0.46z" fill="#00112C"/>
  <path d="m206.2 156.9h2.26c1.48 0 2.22 0.74 2.22 2.15 0 1.28-0.73 2.14-2.41 2.14h-1.05v2.39h-1.02v-6.68zm2.09 3.4c1.07 0 1.47-0.57 1.47-1.31 0-0.83-0.48-1.22-1.34-1.22h-1.2v2.54l1.07-0.01z" fill="#00112C"/>
  <path d="m211.5 156.9h1.05v6.68h-1.05v-6.68z" fill="#00112C"/>
  <path d="m213.8 156.9h1.99c1.47 0 2.28 0.63 2.28 1.94 0.03 0.89-0.57 1.69-1.45 1.9l1.81 2.84h-1.23l-1.57-2.68h-0.77v2.68h-1.05l-0.01-6.68zm1.87 3.18c0.99 0 1.35-0.53 1.35-1.22 0-0.8-0.47-1.12-1.35-1.12h-0.82v2.34h0.82z" fill="#00112C"/>
  <path d="m220.5 156.9h1.21l2.07 6.68h-1.12l-0.72-2.52h-1.96l-0.78 2.52h-1.06l2.36-6.68zm1.21 3.37-0.7-2.67-0.81 2.67h1.51z" fill="#00112C"/>
  <path d="m224.2 156.9h1.02v5.8h2.57v0.88h-3.59v-6.68z" fill="#00112C"/>
  <path d="m145.9 202.2h2.26c1.45 0 2.17 0.58 2.17 1.72 0.01 0.72-0.52 1.35-1.25 1.47 0.84 0.15 1.43 0.69 1.43 1.63 0 1.22-0.87 1.86-2.36 1.86h-2.25v-6.68zm2.15 2.85c0.86 0 1.25-0.38 1.25-0.99 0-0.68-0.46-0.97-1.34-0.97h-1.02v1.96h1.11zm0.07 3.01c1.01 0 1.41-0.45 1.41-1.15 0-0.8-0.55-1.16-1.53-1.16h-1.06v2.31h1.18z" fill="#00112C"/>
  <path d="m152.9 202.2h1.21l2.07 6.68h-1.12l-0.72-2.52h-1.96l-0.78 2.52h-1.06l2.36-6.68zm1.21 3.37-0.7-2.67-0.81 2.67h1.51z" fill="#00112C"/>
  <path d="m156.7 202.2h1.99c1.47 0 2.28 0.63 2.28 1.94 0.03 0.89-0.57 1.69-1.45 1.9l1.81 2.84h-1.23l-1.57-2.68h-0.77v2.68h-1.06v-6.68zm1.86 3.18c0.99 0 1.35-0.53 1.35-1.22 0-0.8-0.47-1.12-1.34-1.12h-0.83v2.34h0.82z" fill="#00112C"/>
  <path d="m162.1 202.2h3.58v0.84h-2.54v2.01h2.33v0.8h-2.33v2.07h2.63v0.85h-3.67v-6.57z" fill="#00112C"/>
  <path d="m166.8 202.2h1.02v5.73h2.57v0.86h-3.59v-6.59z" fill="#00112C"/>
  <path d="m173.3 202.2h1.06v6.68h-1.06v-6.68z" fill="#00112C"/>
  <path d="m175.6 202.2h1.24l2.18 4.38c0.17 0.36 0.3 0.73 0.41 1.11h0.03c-0.01-0.41-0.03-0.83-0.03-1.19v-4.3h0.94v6.68h-1.24l-2.18-4.35c-0.18-0.38-0.31-0.75-0.41-1.07h-0.03c0.01 0.38 0.03 0.75 0.03 1.16v4.26h-0.94v-6.68z" fill="#00112C"/>
  <path d="m182.7 203h-1.86v-0.88h4.78v0.88h-1.86v5.8h-1.06v-5.8z" fill="#00112C"/>
  <path d="m186.3 202.2h3.58v0.84h-2.54v2.01h2.33v0.8h-2.33v2.07h2.63v0.85h-3.67v-6.57z" fill="#00112C"/>
  <path d="m190.8 202.2h1.99c1.47 0 2.28 0.63 2.28 1.94 0.03 0.89-0.57 1.69-1.45 1.9l1.81 2.84h-1.23l-1.57-2.68h-0.77v2.68h-1.06v-6.68zm1.87 3.18c0.99 0 1.35-0.53 1.35-1.22 0-0.8-0.47-1.12-1.34-1.12h-0.83v2.34h0.82z" fill="#00112C"/>
  <path d="m196.2 202.2h1.05v6.68h-1.05v-6.68z" fill="#00112C"/>
  <path d="m198.1 205.6c0-2.11 1-3.42 2.81-3.42s2.62 1.34 2.62 3.32c0 2.2-0.95 3.52-2.77 3.52s-2.66-1.34-2.66-3.42zm4.35-0.04c0-1.75-0.61-2.57-1.62-2.57-1 0-1.66 0.85-1.66 2.55s0.64 2.66 1.67 2.66 1.61-0.9 1.61-2.64z" fill="#00112C"/>
  <path d="m204.4 202.2h1.99c1.46 0 2.27 0.63 2.27 1.94 0.04 0.89-0.56 1.69-1.44 1.9l1.8 2.84h-1.23l-1.56-2.68h-0.78v2.68h-1.05v-6.68zm1.86 3.18c0.99 0 1.36-0.53 1.36-1.22 0-0.8-0.47-1.12-1.35-1.12h-0.82v2.34h0.81z" fill="#00112C"/>
</svg>