<svg xmlns="http://www.w3.org/2000/svg" width="199" height="197" fill="none" viewBox="0 0 199 197">
<!-- SVG created with Arrow, by QuiverAI (https://quiver.ai) -->
  <path d="m198.7 0.84h-197.8v195.4h197.8v-195.4z" fill="#F4E8CD"/>
  <path d="m5.17 5.01 3.16 0.31 3.33-0.38 9.32-0.23 3.85 0.3 5.29-0.3 8.72 0.6 14.41 0.15 9.17-0.89 4.02-0.26 4.75 0.7 10.03-0.05 11.95 0.49 4.22-0.74 3.4 0.07 6.02-0.07 10.29 0.6h11.52l2.34-0.6h25.26l6.34 0.6 6.55-0.6h23.1l1.05 0.3v4.98l0.37 4.89-0.54 3.99 0.54 3.49v7.9l-0.54 4.44 0.54 3.64v14.74l-0.8 3.25 0.8 2.89-0.37 7.45v9.94l0.37 3.54-1.21 3.44 0.84 5.73-0.17 7.6 1.27 4.79-0.26 5.04-0.84 3.49 0.32 5.15-0.96 2.93 1.01 3.24-0.21 8.5 0.43 7.04-1.23 5.88v10.2l0.8 3.24-1.11 4.54 1.32 6.89-1.01 3.24 0.47 5.49-0.47 11.94-0.46 3.59-12.95-0.34-4.59 0.34-4.16-0.39-10.08-0.34-6.96 0.25-9.66 0.14h-22.73l-2.19-0.25-4.12 0.2-2.74-0.34-4.37 0.69-3.94-0.64-9.22 0.05-9.86 0.94-8.67 0.64-5.06-0.89h-5.79l-1.98 0.64-4.86-0.05-0.95-0.74-3.27 0.49-8.04-0.74-6.24 0.35-3.62-0.35-3.17 0.94-3.16-0.59-5.06 0.2-6.96-0.5-11.05 0.6-1.54-1.19v-5.94l0.52-4.44-0.52-5.44 0.52-3.79-0.52-3.24 0.68-4.59-0.63-5.98 0.91-4.63-1.07-5.99 0.63-9.79-0.73-8.25 0.52-6.29-0.79-8.66 0.48-7.6-0.69-6.44 0.58-6.03-0.37-9.24 0.37-5.68 0.48-4.2-0.95-5.98 0.47-6.84-0.69-8.86 0.74-5.68-0.47-9.36 0.58-6.08-0.16-9.79 0.16-5.05-0.58-4.09 0.53-8.27z" fill="#9D4625" stroke="#562A19" stroke-linecap="round" stroke-linejoin="round" stroke-width="1.5"/>
  <path d="m173 99.16c0 36.29-30.66 64.68-72.83 64.68-31.8 0-54.6-13.22-63.77-35.89-3.05-7.41-15.13-15.22-15.13-31.83 0-33.61 22.31-80.9 71.93-80.9 39.41 0 79.8 27 79.8 83.94z" fill="#E6AF58"/>
  <path d="m6.07 18.72c2.35-1.75 11.79-2.69 15.36 2.05 0.68 1.35 0.99 2.04 1.33 2.44 4.16-2.13 11.05-0.98 13.23 3.53 1.11 2.48 1.07 4.97-0.73 8.14 2.7-1.98 7.51-1.15 8.72 2.69 2.9-3.3 10.4-3.65 11.46 2.29 0.16 0.7 0.27 1.05 0.27 1.35 2.02-1.79 8.68-1.74 9.47 2.6 1.06-0.74 4.11-0.69 5.11 1.15 4 0.1 12.72-0.94 16.42 3.8h-0.91l-13.31 0.35-9.71-0.15-12.46-0.35-11.55 0.9-10.29-0.55-5.45 0.74-5.85-0.54h-11.05l-0.06-30.44z" fill="#E6CC9E" stroke="#9D4625" stroke-linecap="round" stroke-linejoin="round" stroke-width=".7"/>
  <path d="m192.1 81.15c-2.34-0.99-3.62 1.04-5 3.69-2.8-2.65-9.4-1.7-11.04 3.88-0.61 2.34-0.32 3.29 0.15 3.99-3.27-2.64-9.06-2.74-11.51 3.3-2.5-1.59-5.77-1.19-7.49 1.8h-1.21c-2.38 0-5.96 0.9-6.56 2.19l9.91-0.29 9.75 0.35 7.7-0.7 6.55 0.65h8.52l0.23-18.86z" fill="#E6CC9E" stroke="#9D4625" stroke-linecap="round" stroke-linejoin="round" stroke-width=".7"/>
  <path d="m192.6 160.9c-4.32-1.9-11.71-0.16-12.71 5.13-7.2-1.25-14.25 2.89-13.68 10.14-1.11 0.94-2.4 0.9-3.03 0.15-6-2.84-13.6 0.55-15.29 6.58-5.23-3.49-14.13-3.73-16.05 3.01-2.95-0.35-6.62-0.75-11.11 4.44l10.23-0.15 10.18 0.3 13.56-0.2 10.08 0.59 8.35 0.55 5.79-0.64 12.9 0.24 0.78-30.14z" fill="#F4E8CD" stroke="#9D4625" stroke-linecap="round" stroke-linejoin="round" stroke-width=".7"/>
  <path d="m6.44 93.72c4.06-0.84 7.47 1.8 8.47 5.19 2.35-1.65 8.03-1.84 8.93 2.9 0.21 0.94 0.21 1.39 0.21 1.74 3.11-1.8 6.78-0.5 8.05 2.94 4.11-1.25 6.22 0.5 7.8 2.89h6.29c2.6 0 4.08 1.34 3.82 1.74l-12.8-0.2-12 0.55-19.09 0.34 0.32-18.09z" fill="#E6CC9E" stroke="#9D4625" stroke-linecap="round" stroke-linejoin="round" stroke-width=".7"/>
  <path d="m7.07 25.09c2.02-1.88 5.69-2.28 7.56-1.98" stroke="#D7B47A" stroke-linecap="round" stroke-linejoin="round" stroke-width=".7"/>
  <path d="m7.62 27.18c2.51-1.25 5.78-1.4 8.28-0.5" stroke="#D7B47A" stroke-linecap="round" stroke-linejoin="round" stroke-width=".7"/>
  <path d="m7.84 28.82c3.21-1.69 8.61-1.64 10.34-0.3" stroke="#D7B47A" stroke-linecap="round" stroke-linejoin="round" stroke-width=".7"/>
  <path d="m13.03 31.11c2.69-1.09 5.64-1.34 7.76-0.15" stroke="#D7B47A" stroke-linecap="round" stroke-linejoin="round" stroke-width=".7"/>
  <path d="m25.48 34.65c1.53-2.54 5.47-2.59 5.68-0.45 0.16 1.65-1.94 2.59-3.41 1.7" stroke="#9D4625" stroke-linecap="round" stroke-linejoin="round" stroke-width=".7"/>
  <path d="m26.95 39.02c2.24 1.79 5.34 1.65 8.44-0.34" stroke="#9D4625" stroke-linecap="round" stroke-linejoin="round" stroke-width=".7"/>
  <path d="m43.98 37.64c2.24-1.24 4.83-1.29 6.24-0.05" stroke="#9D4625" stroke-linecap="round" stroke-linejoin="round" stroke-width=".7"/>
  <path d="m37.18 43.42 11.79 0.35 3.05 0.15" stroke="#D7B47A" stroke-linecap="round" stroke-linejoin="round" stroke-width=".7"/>
  <path d="m60.36 45.11 4.06 0.1" stroke="#D7B47A" stroke-linecap="round" stroke-linejoin="round" stroke-width=".7"/>
  <path d="m7.34 43.12 9.71-0.2" stroke="#9D4625" stroke-linecap="round" stroke-linejoin="round" stroke-width=".7"/>
  <path d="m191.8 170.8c-2.9-3.74-11.72-1.75-15.14 2.64" stroke="#9D4625" stroke-linecap="round" stroke-linejoin="round" stroke-width=".7"/>
  <path d="m191.1 173.7c-3.32-2.94-12.93-1.84-15.04 3.2" stroke="#9D4625" stroke-linecap="round" stroke-linejoin="round" stroke-width=".7"/>
  <path d="m190.8 176.5c-3.71-3.15-11.56-1.65-13.44 1.59" stroke="#9D4625" stroke-linecap="round" stroke-linejoin="round" stroke-width=".7"/>
  <path d="m188.8 179.6c-3.62-2.24-9.73-0.85-10.95 0.95" stroke="#9D4625" stroke-linecap="round" stroke-linejoin="round" stroke-width=".7"/>
  <path d="m187.6 182.2c-1.97-1.05-5.29-0.85-6.71 0.35" stroke="#9D4625" stroke-linecap="round" stroke-linejoin="round" stroke-width=".7"/>
  <path d="m172.8 181.1c-1.52-0.95-3-1.99-2.1-0.85" stroke="#9D4625" stroke-linecap="round" stroke-linejoin="round" stroke-width=".7"/>
  <path d="m169.1 182.8c-2.35-3.74-8.95-4.49-12.95-0.6" stroke="#9D4625" stroke-linecap="round" stroke-linejoin="round" stroke-width=".7"/>
  <path d="m156.5 186.1c3.48-1.99 9.72-1.29 11.4 0.26" stroke="#9D4625" stroke-linecap="round" stroke-linejoin="round" stroke-width=".7"/>
  <path d="m134 188.4c3.9-1.89 10.75-1.15 14.46-0.3" stroke="#9D4625" stroke-linecap="round" stroke-linejoin="round" stroke-width=".7"/>
  <path d="m7.07 105.8c2.07-2.7 3.02-3.49 0.72-8.08" stroke="#D7B47A" stroke-linecap="round" stroke-linejoin="round" stroke-width=".7"/>
  <path d="m12.18 107 3.95-0.7 5.85 0.8" stroke="#D7B47A" stroke-linecap="round" stroke-linejoin="round" stroke-width=".7"/>
  <path d="m16.24 108.1 8.05 0.15" stroke="#D7B47A" stroke-linecap="round" stroke-linejoin="round" stroke-width=".7"/>
  <path d="m97.17 21.57h94.71v0.54l-31.22 0.15-63.49-0.69z" fill="#9D4625" stroke="#562A19" stroke-linecap="round" stroke-linejoin="round" stroke-width=".7"/>
  <path d="m192.4 5.31-0.53 1.75-0.58-1.85-8.26 0.45-5.79-0.55-9.33-0.1-5.5 0.65-6.35-0.65h-18.86l-2.19 0.65-9.27-0.25-7.2-0.3-11.34 0.1-6.06-0.5-6.6 0.6-12-0.15-11.39-0.25-5-0.5-2.65 0.85-5.44-0.35-12 0.45-13.72-0.35-6.29-0.3-5.18 0.4-7.6-0.25-4.55 0.85-1.42-0.6-1.11 1v-0.95l1.64 0.15h7.1l8.57-0.6h12.6l8.4 0.45 13.4-0.25 5.18 0.7 3.05-1.2 6.45 0.6 9.52 0.2 10.64 0.1 4.7-0.6 5.4 0.2 6.8-0.05 7.11 0.55 9.61-0.2 3.05-0.5h4.7l2.89 0.4 2.7-0.74 4.45 0.34 4.85 0.9 6-0.6 7.7 0.45 7.9-0.75 6.15 0.6h9.86 5.79z" fill="#9D4625" stroke="#562A19" stroke-linecap="round" stroke-linejoin="round" stroke-width=".7"/>
  <path d="m126.3 13.88c1.33-6.49 4.95-6.94 10.39-6.55 1.11 0.15 0.75 2.19-1.7 2.84 2.95-1.74 6.42-3.68 9.74-3.48 2.5 0.1 4.62 1.19 7.46 2.54l-5.13 0.19 4.06 1-9.76 0.1-5.69 3.39-4.54 0.4c-0.79 2.09-2.43 3.14-3.6 2.99l-4.75-3.99 3.52 0.57z" fill="#F4E8CD" stroke="#9D4625" stroke-linecap="round" stroke-linejoin="round" stroke-width=".7"/>
  <path d="m164.8 8.83 5.24-0.75 9.86 0.64" stroke="#D7B47A" stroke-linecap="round" stroke-linejoin="round" stroke-width=".7"/>
  <path d="m169.3 12.77 12.75-0.35" stroke="#D7B47A" stroke-linecap="round" stroke-linejoin="round" stroke-width=".7"/>
  <path d="m170.8 17.72 18.72-0.64" stroke="#F4E8CD" stroke-linecap="round" stroke-linejoin="round" stroke-width=".7"/>
  <path d="m114.4 16.58c1.53-4.29 6.49-6.39 12.59-3.1 1.87 1.15 4.77 3.74 5.56 4.04l-3.27 0.2-4.32-0.4-5.79 0.4-9.43 0.4 4.66-1.54z" fill="#F4E8CD" stroke="#9D4625" stroke-linecap="round" stroke-linejoin="round" stroke-width=".7"/>
  <path d="m46.56 23.01 22.56-0.4" stroke="#D7B47A" stroke-linecap="round" stroke-linejoin="round" stroke-width=".7"/>
  <path d="m44.06 28.05 30.03 0.45" stroke="#D7B47A" stroke-linecap="round" stroke-linejoin="round" stroke-width=".7"/>
  <path d="m64.1 33.75 16.96-0.35" stroke="#9D4625" stroke-linecap="round" stroke-linejoin="round" stroke-width=".7"/>
  <path d="m88.51 25.21 7.5 0.1" stroke="#D7B47A" stroke-linecap="round" stroke-linejoin="round" stroke-width=".7"/>
  <path d="m89.19 28.5 14.87 0.2" stroke="#D7B47A" stroke-linecap="round" stroke-linejoin="round" stroke-width=".7"/>
  <path d="m99.06 36.34 21.16 0.55" stroke="#D7B47A" stroke-linecap="round" stroke-linejoin="round" stroke-width=".7"/>
  <path d="m15.11 57.13 13.82 0.4" stroke="#9D4625" stroke-linecap="round" stroke-linejoin="round" stroke-width=".7"/>
  <path d="m15.49 63.98 11.54 0.24" stroke="#9D4625" stroke-linecap="round" stroke-linejoin="round" stroke-width=".7"/>
  <path d="m12.12 65.12 13.93 1.35" stroke="#9D4625" stroke-linecap="round" stroke-linejoin="round" stroke-width=".7"/>
  <path d="m15.91 76.01 9.71 0.4 12.59-0.25" stroke="#9D4625" stroke-linecap="round" stroke-linejoin="round" stroke-width=".7"/>
  <path d="m21.91 82.1 9.12 0.3" stroke="#9D4625" stroke-linecap="round" stroke-linejoin="round" stroke-width=".7"/>
  <path d="m22.59 89.14 8.34 0.2" stroke="#9D4625" stroke-linecap="round" stroke-linejoin="round" stroke-width=".7"/>
  <path d="m24.72 94.88 22.21 0.39" stroke="#9D4625" stroke-linecap="round" stroke-linejoin="round" stroke-width=".7"/>
  <path d="m11.44 116.8 16.38 0.4" stroke="#9D4625" stroke-linecap="round" stroke-linejoin="round" stroke-width=".7"/>
  <path d="m14.55 120.1 30.34 0.65" stroke="#9D4625" stroke-linecap="round" stroke-linejoin="round" stroke-width=".7"/>
  <path d="m29.14 123.7 14.18 0.5" stroke="#9D4625" stroke-linecap="round" stroke-linejoin="round" stroke-width=".7"/>
  <path d="m14.92 133.2 16.75 0.4" stroke="#9D4625" stroke-linecap="round" stroke-linejoin="round" stroke-width=".7"/>
  <path d="m26.36 179.4-1.87 1.99" stroke="#9D4625" stroke-linecap="round" stroke-linejoin="round" stroke-width=".7"/>
  <path d="m32.05 184.4-1.27 1.35" stroke="#9D4625" stroke-linecap="round" stroke-linejoin="round" stroke-width=".7"/>
  <path d="m44.01 178.3 13.6-0.4" stroke="#D7B47A" stroke-linecap="round" stroke-linejoin="round" stroke-width=".7"/>
  <path d="m58.4 175.8 12.35 0.35 21.37-0.95" stroke="#9D4625" stroke-linecap="round" stroke-linejoin="round" stroke-width=".7"/>
  <path d="m62.02 179 9.27-0.24" stroke="#9D4625" stroke-linecap="round" stroke-linejoin="round" stroke-width=".7"/>
  <path d="m62.24 180.4 3.85-0.15" stroke="#9D4625" stroke-linecap="round" stroke-linejoin="round" stroke-width=".7"/>
  <path d="m60.71 162.1 15.53 0.5" stroke="#9D4625" stroke-linecap="round" stroke-linejoin="round" stroke-width=".7"/>
  <path d="m64.92 166.7 8.09 0.4" stroke="#9D4625" stroke-linecap="round" stroke-linejoin="round" stroke-width=".7"/>
  <path d="m74.92 172.2 10.89-0.3" stroke="#9D4625" stroke-linecap="round" stroke-linejoin="round" stroke-width=".7"/>
  <path d="m85.65 168.2 12.29 0.3 21.37 0.79" stroke="#9D4625" stroke-linecap="round" stroke-linejoin="round" stroke-width=".7"/>
  <path d="m101.2 174.4 4.49 0.2" stroke="#9D4625" stroke-linecap="round" stroke-linejoin="round" stroke-width=".7"/>
  <path d="m117.8 171.9 5.29 0.35" stroke="#9D4625" stroke-linecap="round" stroke-linejoin="round" stroke-width=".7"/>
  <path d="m128.2 167.7 2.9 0.35" stroke="#9D4625" stroke-linecap="round" stroke-linejoin="round" stroke-width=".7"/>
  <path d="m110.8 163.2 11.04 0.5 17.85-0.65" stroke="#9D4625" stroke-linecap="round" stroke-linejoin="round" stroke-width=".7"/>
  <path d="m125.5 157 7.5 0.99 14.86 0.3" stroke="#9D4625" stroke-linecap="round" stroke-linejoin="round" stroke-width=".7"/>
  <path d="m133 153.7 11.79 0.15" stroke="#9D4625" stroke-linecap="round" stroke-linejoin="round" stroke-width=".7"/>
  <path d="m140.1 149.2 10.23 0.5" stroke="#9D4625" stroke-linecap="round" stroke-linejoin="round" stroke-width=".7"/>
  <path d="m127.5 145.7 18.01 0.65" stroke="#9D4625" stroke-linecap="round" stroke-linejoin="round" stroke-width=".7"/>
  <path d="m124.9 143.4 10.23-0.7 9.65 0.9" stroke="#9D4625" stroke-linecap="round" stroke-linejoin="round" stroke-width=".7"/>
  <path d="m115.2 138.8 10.23-0.64 20.78 0.74" stroke="#9D4625" stroke-linecap="round" stroke-linejoin="round" stroke-width=".7"/>
  <path d="m110.5 153.8 13.87-0.45" stroke="#9D4625" stroke-linecap="round" stroke-linejoin="round" stroke-width=".7"/>
  <path d="m160.5 158.2 4.64-0.35" stroke="#9D4625" stroke-linecap="round" stroke-linejoin="round" stroke-width=".7"/>
  <path d="m151.3 166.6 6.4 0.3" stroke="#9D4625" stroke-linecap="round" stroke-linejoin="round" stroke-width=".7"/>
  <path d="m170.9 109.5 15.63 0.2" stroke="#9D4625" stroke-linecap="round" stroke-linejoin="round" stroke-width=".7"/>
  <path d="m165.9 112.1 14.19 0.3" stroke="#9D4625" stroke-linecap="round" stroke-linejoin="round" stroke-width=".7"/>
  <path d="m167.8 116.8 13.47 0.3" stroke="#9D4625" stroke-linecap="round" stroke-linejoin="round" stroke-width=".7"/>
  <path d="m153.6 122 10.39-0.4" stroke="#9D4625" stroke-linecap="round" stroke-linejoin="round" stroke-width=".7"/>
  <path d="m157.1 126.7 19.91-0.5" stroke="#9D4625" stroke-linecap="round" stroke-linejoin="round" stroke-width=".7"/>
  <path d="m163.2 130.5 8.81-0.45" stroke="#9D4625" stroke-linecap="round" stroke-linejoin="round" stroke-width=".7"/>
  <path d="m164 56.83 9.86 0.7 16.17 1.1" stroke="#9D4625" stroke-linecap="round" stroke-linejoin="round" stroke-width=".7"/>
  <path d="m170 60.72 17.21 0.6" stroke="#9D4625" stroke-linecap="round" stroke-linejoin="round" stroke-width=".7"/>
  <path d="m162.7 70.41 11.04-0.2 11.49 0.6" stroke="#9D4625" stroke-linecap="round" stroke-linejoin="round" stroke-width=".7"/>
  <path d="m169.7 73.11 12.34-0.8" stroke="#9D4625" stroke-linecap="round" stroke-linejoin="round" stroke-width=".7"/>
  <path d="m161 79.8 11.95-0.64" stroke="#9D4625" stroke-linecap="round" stroke-linejoin="round" stroke-width=".7"/>
  <path d="m155.5 83.79 15.27-0.75" stroke="#D7B47A" stroke-linecap="round" stroke-linejoin="round" stroke-width=".7"/>
  <path d="m182.1 138.2 2.55 0.7" stroke="#9D4625" stroke-linecap="round" stroke-linejoin="round" stroke-width=".7"/>
  <path d="m180.5 91.01c1.58-1.99 4.28-1.59 4.54 0 0.47 2.69-2.42 4.49-5.32 4.04-2.89-0.45-4.58-4.34-3.63-8.13" stroke="#9D4625" stroke-linecap="round" stroke-linejoin="round" stroke-width=".7"/>
  <path d="m74.09 157.4 9.52 0.5" stroke="#D7B47A" stroke-linecap="round" stroke-linejoin="round" stroke-width=".7"/>
  <path d="m68.19 155 6.9 0.95" stroke="#D7B47A" stroke-linecap="round" stroke-linejoin="round" stroke-width=".7"/>
  <path d="m79.79 153.7 11.44-0.15 8.99 0.55" stroke="#D7B47A" stroke-linecap="round" stroke-linejoin="round" stroke-width=".7"/>
  <path d="m96.01 151.2 10.69-0.15" stroke="#D7B47A" stroke-linecap="round" stroke-linejoin="round" stroke-width=".7"/>
  <path d="m73.35 63.06 12.7-0.8h9.71l7.99 0.8" stroke="#F4E8CD" stroke-linecap="round" stroke-linejoin="round" stroke-width=".7"/>
  <path d="m85.15 67.85 11.34-0.19" stroke="#F4E8CD" stroke-linecap="round" stroke-linejoin="round" stroke-width=".7"/>
  <path d="m81.62 72.16 1.59 0.45" stroke="#F4E8CD" stroke-linecap="round" stroke-linejoin="round" stroke-width=".7"/>
  <path d="m86.05 75.41 17.52-0.25" stroke="#F4E8CD" stroke-linecap="round" stroke-linejoin="round" stroke-width=".7"/>
  <path d="m57.22 100.1 2.6 0.3" stroke="#F4E8CD" stroke-linecap="round" stroke-linejoin="round" stroke-width=".7"/>
  <path d="m46.62 172.3-9.81-0.3" stroke="#9D4625" stroke-linecap="round" stroke-linejoin="round" stroke-width=".7"/>
  <path d="m13.01 166.6-4.69 0.25" stroke="#9D4625" stroke-linecap="round" stroke-linejoin="round" stroke-width=".7"/>
  <path d="m6.13 54.93v4.99" stroke="#9D4625" stroke-linecap="round" stroke-linejoin="round" stroke-width=".7"/>
  <path d="m6.06 170.2v2.8" stroke="#9D4625" stroke-linecap="round" stroke-linejoin="round" stroke-width=".7"/>
  <path d="m192.4 54.23v2.55" stroke="#9D4625" stroke-linecap="round" stroke-linejoin="round" stroke-width=".7"/>
  <path d="m193.2 166.3v4.1" stroke="#9D4625" stroke-linecap="round" stroke-linejoin="round" stroke-width=".7"/>
  <path d="m192 186.9v2.74" stroke="#9D4625" stroke-linecap="round" stroke-linejoin="round" stroke-width=".7"/>
  <path d="m135.7 103.4c6.05-1.37 11.45 1.37 15.39 5.66l-5.85-1.41c4.54 1.7 6.71 6.48 6.87 10.02-1.74-2.49-4.9-4.73-7.9-6.22 5.11 2.79 6.67 9.23 5.83 12.32l-3.06-0.8-1.29 4.08 20.46 16.76 5.54 0.89 6.06 3.19-4.71-0.69 6.88 4.28-14.68-5.33-23.26-17.95-6-3.19-0.89 7.79c-2.95-2.19-4.78-4.33-6.46-6.47l-1.92 5.33c-3.47-3.19-5.44-6.28-6.13-13.45-2.7 3.79-5.7 6.99-8.91 5.85l2.5 2.39c-1.48 0.95-3.82 1.45-5.5 0.95 0.37 2.44-2.63 4.83-6.57 4.23 0.21 1.45-2.13 3.54-4.88 2.94l-1.21 1.9c-1.92 1.29-3.75 1.79-5.94 0.74-0.32 2-3.84 3.34-6.89 1.4-0.11 2.49-2.4 4.53-5.56 1.49-0.85 3.8-2.58 6.79-4.82 6.64l-1.22-1.85c-1 3.44-2.43 7.98-4.4 7.74l-0.9-4.89c-2.24 4.19-5.71 9.28-8.71 9.78l0.41-7.39c-3.94 7.04-7.32 11.93-11.91 12.93l2.08-7.54c-5 6.19-8.06 8.83-23.98 8.88 5.5-4.49 8.82-8.18 11.61-12.02-5.11 5.63-9.17 9.82-13.61 9.28 6.19-5.84 12.14-10.63 16.2-15.72-7.33 7.33-15.48 13.17-24.05 12.27 10.7-7.93 17.65-11.77 25.6-21.17-8.4 7.85-15.69 15.14-28.64 13.64 10.89-4.89 20.11-9.48 29.49-20.38l5.8-5.98 3.57-2.84 8.34-8.71c3.53-2.94 5.87-3.53 11.56-5.08 7-2.04 13.55-6.78 16.4-9.54-3.42 2.54-3.95 3.55-5.42 3.35-7.8-5.29-14.96-13.18-19.01-22.05-2.19-3.65-4.16-4.44-8.1-5.68-2.94-0.95-4.06-3.6-5.84-4.4l-17.53-7.11 19.05 2.65c1.33-1.09 3.39-1.84 6.71-1.1 6.39 1.3 7.67 5.54 10.26 12.09 3.42 9.24 11.11 13.68 20.03 12.74 3.27-0.59 7.76-0.84 12.66-1.04 7.3-4.89 10.92-13.63 13.27-22.69 1.47-5.14 5.32-8.19 8.59-11.03 11.04-9.69 22.64-23.88 27.98-40.36 1.37 1.15 0.47 11.54-2.9 18.08 4.59-5.49 9.78-10.59 12.37-16.83 2.45 1.65-1.22 14.03-9.26 22.76 5.74-4.14 10.84-8.23 15.38-14.42 1.22 1.4-1.88 11.73-12.57 20.49 5.06-2.1 11.01-5.69 16.3-10.63 0.27 3.04-3.73 11.28-12.35 15.92l11.74-5.19c-0.53 3.94-4.9 9.38-9.85 11.97l6.05-2.89c0.06 2.29-3.95 5.59-6.85 7.13l3.71-0.74c-0.79 2.24-4.21 5.08-7.11 6.13l2.4 0.3c-0.58 1.45-2.77 3.1-6.57 3.79 1.47 1.05 1.47 3.49-1.17 3.89 2.24 1.54 0.71 3.44-0.66 4.03 1.11 0.95 0.64 3.59-1.19 3.69 1.11 1.79 0.42 4.03-1.41 4.08 0.85 1.69-0.79 4.33-1.95 3.89 0.9 1.94-0.11 4.23-1.98 3.48 0.84 2.09 0.11 4.58-2.34 3.64 0.16 1.35-0.48 3.49-2.82 2.99l-0.36 4.32z" fill="#F4E8CD" stroke="#562A19" stroke-linecap="round" stroke-linejoin="round" stroke-width=".7"/>
  <path d="m135 103.1c2.12 1.65 1.74 4.19 1.21 6.38 2.45 0.65 6.82 3.59 8.24 7.98" stroke="#562A19" stroke-linecap="round" stroke-linejoin="round" stroke-width=".7"/>
  <path d="m136.1 110.3c1.97 0.8 5.13 3.79 6.91 8.88" stroke="#562A19" stroke-linecap="round" stroke-linejoin="round" stroke-width=".7"/>
  <path d="m134 111.9 5.34 6.14 3.22 6.42" stroke="#562A19" stroke-linecap="round" stroke-linejoin="round" stroke-width=".7"/>
  <path d="m130.2 113.4 5.1 7.3 0.84 6.35" stroke="#562A19" stroke-linecap="round" stroke-linejoin="round" stroke-width=".7"/>
  <path d="m126.8 114.8 4.05 7.74 1.01 5.64" stroke="#562A19" stroke-linecap="round" stroke-linejoin="round" stroke-width=".7"/>
  <path d="m124.8 115 2.9 7.34" stroke="#562A19" stroke-linecap="round" stroke-linejoin="round" stroke-width=".7"/>
  <path d="m100.1 88.26c5.59 0.05 13.69 1.4 18.28 4.25 5.5 2.69 9.87 5.63 15.41 12.57" stroke="#562A19" stroke-linecap="round" stroke-linejoin="round" stroke-width=".7"/>
  <path d="m107.9 108.1 11.65 4.74 3.52 1.89" stroke="#562A19" stroke-linecap="round" stroke-linejoin="round" stroke-width=".7"/>
  <path d="m109 110.2 7.2 4.19 4.32 1.65" stroke="#562A19" stroke-linecap="round" stroke-linejoin="round" stroke-width=".7"/>
  <path d="m104.3 111.6 9.12 5.69 4.05 1.35" stroke="#562A19" stroke-linecap="round" stroke-linejoin="round" stroke-width=".7"/>
  <path d="m100.4 113.3 7.8 5.84 4.7 1.65" stroke="#562A19" stroke-linecap="round" stroke-linejoin="round" stroke-width=".7"/>
  <path d="m97.85 115.2 5.3 5.04 6.95 3.83" stroke="#562A19" stroke-linecap="round" stroke-linejoin="round" stroke-width=".7"/>
  <path d="m93.68 117.6 6.24 6.49 5.25 3.1" stroke="#562A19" stroke-linecap="round" stroke-linejoin="round" stroke-width=".7"/>
  <path d="m89.09 117.9 6.55 7.29 3.16 2.45" stroke="#562A19" stroke-linecap="round" stroke-linejoin="round" stroke-width=".7"/>
  <path d="m86.04 117.3 6.24 8.59" stroke="#562A19" stroke-linecap="round" stroke-linejoin="round" stroke-width=".7"/>
  <path d="m82.93 116.7 5.8 9.99" stroke="#562A19" stroke-linecap="round" stroke-linejoin="round" stroke-width=".7"/>
  <path d="m79.88 115.7 5.05 11.39" stroke="#562A19" stroke-linecap="round" stroke-linejoin="round" stroke-width=".7"/>
  <path d="m76.88 115.7 3.37 11.24" stroke="#562A19" stroke-linecap="round" stroke-linejoin="round" stroke-width=".7"/>
  <path d="m74.23 115.6 2.19 11.59" stroke="#562A19" stroke-linecap="round" stroke-linejoin="round" stroke-width=".7"/>
  <path d="m71.94 116 2.19 11.99" stroke="#562A19" stroke-linecap="round" stroke-linejoin="round" stroke-width=".7"/>
  <path d="m69.09 116.7 4.7 21.05v8.58" stroke="#562A19" stroke-linecap="round" stroke-linejoin="round" stroke-width=".7"/>
  <path d="m66.44 117.1-0.79 18.92-1.53 11.72" stroke="#562A19" stroke-linecap="round" stroke-linejoin="round" stroke-width=".7"/>
  <path d="m62.73 117.7-4.7 15.73" stroke="#562A19" stroke-linecap="round" stroke-linejoin="round" stroke-width=".7"/>
  <path d="m58.79 118.8-5.54 10.34" stroke="#562A19" stroke-linecap="round" stroke-linejoin="round" stroke-width=".7"/>
  <path d="m53.4 122.4-6.3 9.24" stroke="#562A19" stroke-linecap="round" stroke-linejoin="round" stroke-width=".7"/>
  <path d="m52.07 129.1-11.05 18.5-8.4 11.62" stroke="#562A19" stroke-linecap="round" stroke-linejoin="round" stroke-width=".7"/>
  <path d="m49.52 131.2-7.85 18.25-5.15 13.06" stroke="#562A19" stroke-linecap="round" stroke-linejoin="round" stroke-width=".7"/>
  <path d="m133.8 128.8 7.05 0.89 21.98 21.39 14.64 6.84-10.48-3.2-4.64-3.64" stroke="#562A19" stroke-linecap="round" stroke-linejoin="round" stroke-width=".7"/>
  <path d="m168.4 150.1 5.89 3.64" stroke="#562A19" stroke-linecap="round" stroke-linejoin="round" stroke-width=".7"/>
  <path d="m170 145.6 4.8 1.45" stroke="#562A19" stroke-linecap="round" stroke-linejoin="round" stroke-width=".7"/>
  <path d="m132.7 46.9c7.2-8.73 14.5-18.52 17.15-30.23" stroke="#562A19" stroke-linecap="round" stroke-linejoin="round" stroke-width=".7"/>
  <path d="m134.6 48.05c9.22-8.93 18.5-18.67 22.66-27.69" stroke="#562A19" stroke-linecap="round" stroke-linejoin="round" stroke-width=".7"/>
  <path d="m136.5 49.89c11.14-7.14 20.57-15.34 25.62-22.28" stroke="#562A19" stroke-linecap="round" stroke-linejoin="round" stroke-width=".7"/>
  <path d="m135.9 52.38c11.94-4.43 23.33-9.97 29.52-16.36" stroke="#562A19" stroke-linecap="round" stroke-linejoin="round" stroke-width=".7"/>
  <path d="m135.1 54.82c8.87-2.74 21.38-6.68 28.04-10.62" stroke="#562A19" stroke-linecap="round" stroke-linejoin="round" stroke-width=".7"/>
  <path d="m134.7 56.82c7.35-1.8 20.81-4.94 28.75-7.73" stroke="#562A19" stroke-linecap="round" stroke-linejoin="round" stroke-width=".7"/>
  <path d="m132.1 60.12c6.84-1.4 20.07-3.95 26.77-6.09" stroke="#562A19" stroke-linecap="round" stroke-linejoin="round" stroke-width=".7"/>
  <path d="m130.6 62.91 21.47-1.54" stroke="#562A19" stroke-linecap="round" stroke-linejoin="round" stroke-width=".7"/>
  <path d="m129.7 64.86 18.42 0.4" stroke="#562A19" stroke-linecap="round" stroke-linejoin="round" stroke-width=".7"/>
  <path d="m129.8 67.41c5.19-0.2 15.16 0.5 19.9 2.09" stroke="#562A19" stroke-linecap="round" stroke-linejoin="round" stroke-width=".7"/>
  <path d="m130 70.4c4.7 0.35 13.25 2.04 18.11 4.03" stroke="#562A19" stroke-linecap="round" stroke-linejoin="round" stroke-width=".7"/>
  <path d="m130.2 73.54c4.54 1.34 11.14 3.48 14.9 5.28" stroke="#562A19" stroke-linecap="round" stroke-linejoin="round" stroke-width=".7"/>
  <path d="m130.4 76.53c3.71 1.4 8.65 3.54 11.82 5.53" stroke="#562A19" stroke-linecap="round" stroke-linejoin="round" stroke-width=".7"/>
  <path d="m129.2 79.92" stroke="#562A19" stroke-linecap="round" stroke-linejoin="round" stroke-width=".7"/>
  <path d="m127.7 83.06c3.11 2.2 6.78 4.99 9.68 7.93" stroke="#562A19" stroke-linecap="round" stroke-linejoin="round" stroke-width=".7"/>
  <path d="m125.7 86.41 8.05 7.24" stroke="#562A19" stroke-linecap="round" stroke-linejoin="round" stroke-width=".7"/>
  <path d="m123.8 88.01 5.55 5.04" stroke="#562A19" stroke-linecap="round" stroke-linejoin="round" stroke-width=".7"/>
  <path d="m120 86.11 3.06 2.2" stroke="#562A19" stroke-linecap="round" stroke-linejoin="round" stroke-width=".7"/>
  <path d="m117.6 83.26 5.29 2.85 2.5 1.5" stroke="#562A19" stroke-linecap="round" stroke-linejoin="round" stroke-width=".7"/>
  <path d="m117.4 79.47 6.9 3.14 2.79 1.44" stroke="#562A19" stroke-linecap="round" stroke-linejoin="round" stroke-width=".7"/>
  <path d="m119.1 75.23 7.61 3.69 2.44 1.1" stroke="#562A19" stroke-linecap="round" stroke-linejoin="round" stroke-width=".7"/>
  <path d="m121.2 71.49 5.8 1.69 3 1.45" stroke="#562A19" stroke-linecap="round" stroke-linejoin="round" stroke-width=".7"/>
  <path d="m123 67.95 4.21 0.45" stroke="#562A19" stroke-linecap="round" stroke-linejoin="round" stroke-width=".7"/>
  <path d="m123.9 65.31 3.57-0.9" stroke="#562A19" stroke-linecap="round" stroke-linejoin="round" stroke-width=".7"/>
  <path d="m124.5 51.79-3.67 4.49-3.27 2.85" stroke="#562A19" stroke-linecap="round" stroke-linejoin="round" stroke-width=".7"/>
  <path d="m131 49-4.85 4.43-3.01 2.65" stroke="#562A19" stroke-linecap="round" stroke-linejoin="round" stroke-width=".7"/>
  <path d="m135.5 51.14-6.55 4.49-5.74 3.29" stroke="#562A19" stroke-linecap="round" stroke-linejoin="round" stroke-width=".7"/>
  <path d="m136.1 53.38-6.25 4.39-6.89 3.45" stroke="#562A19" stroke-linecap="round" stroke-linejoin="round" stroke-width=".7"/>
  <path d="m122.4 54.18-1.06 2.24" stroke="#562A19" stroke-linecap="round" stroke-linejoin="round" stroke-width=".7"/>
  <path d="m120.1 60.12-1.17 1.89" stroke="#562A19" stroke-linecap="round" stroke-linejoin="round" stroke-width=".7"/>
  <path d="m120.6 63.11-1.53 1.5" stroke="#562A19" stroke-linecap="round" stroke-linejoin="round" stroke-width=".7"/>
  <path d="m120.3 66.11-1.53 1.1" stroke="#562A19" stroke-linecap="round" stroke-linejoin="round" stroke-width=".7"/>
  <path d="m119.2 69.15-1.54 0.9" stroke="#562A19" stroke-linecap="round" stroke-linejoin="round" stroke-width=".7"/>
  <path d="m117.5 72.04-1.47 0.7" stroke="#562A19" stroke-linecap="round" stroke-linejoin="round" stroke-width=".7"/>
  <path d="m115.2 75.73-1.53 0.9" stroke="#562A19" stroke-linecap="round" stroke-linejoin="round" stroke-width=".7"/>
  <path d="m113.8 80.07-2.45 1.59" stroke="#562A19" stroke-linecap="round" stroke-linejoin="round" stroke-width=".7"/>
  <path d="m113.8 82.92-2.44 1.2" stroke="#562A19" stroke-linecap="round" stroke-linejoin="round" stroke-width=".7"/>
  <path d="m116 84.12-2.7 1.6" stroke="#562A19" stroke-linecap="round" stroke-linejoin="round" stroke-width=".7"/>
  <path d="m118.3 86.01-3.06 1.6" stroke="#562A19" stroke-linecap="round" stroke-linejoin="round" stroke-width=".7"/>
  <path d="m92.58 90.71 4.05-0.2 3.71 1.2 2.65 0.7-1.16 1.49 4.66-0.85 2.9 1.36h-14.34l16.64 1.34-1.06 2.6 4.39 1.2 0.85 1.89 2.6-0.45 3.16 1.09-0.75 2.5 2.34 0.3 0.9 1.55 2.29-0.3-1.82 3.24 2.6-0.3 1.12 2.84 2.45 1.4 2.34 1.2 2.02-1.2-1.68-4.19-1.68-2.99" stroke="#562A19" stroke-linecap="round" stroke-linejoin="round" stroke-width=".7"/>
  <path d="m49.15 65.46 2.6 0.51c-0.44 1.89 0.36 3.04 1.94 2.74" fill="#562A19" stroke="#562A19" stroke-linecap="round" stroke-linejoin="round" stroke-width=".7"/>
  <path d="m53.13 67.31 1.28-0.3" stroke="#F4E8CD" stroke-linecap="round" stroke-linejoin="round" stroke-width=".7"/>
</svg>