<svg xmlns="http://www.w3.org/2000/svg" width="200" height="200" fill="none" viewBox="0 0 200 200">
<!-- SVG created with Arrow, by QuiverAI (https://quiver.ai) -->
  <path d="m1.82 1.64 196.2-0.12 0.15 197.7-196.2 0.12-0.15-197.7z" fill="#F2E8CA"/>
  <path d="m6.78 6.86 186.4-0.28 0.08 186.3-186.2 0.28-0.33-186.3z" fill="#F2E8CA" stroke="#52291A" stroke-miterlimit="10" stroke-width="1.27"/>
  <path d="m7.82 8.38 5.55-0.96 6.09 0.41 8.32-1.6 8.23 0.41 7.57 0.41 15.58-0.55 10.61 0.14 16.21-0.14 10.6 0.71 27.29 0.28 10.19-0.41 9.97-0.95 10.02 0.51 12.4 0.07 9.7 0.85h15.72l1.21 0.82-0.41 183.4-2.62 0.41-8.97 0.13-5.96-0.95-7.48 0.68-6.68-1.09-12.54 0.41-11.71-0.14-7.65-0.81-9-0.61-9.57 0.95-12.81-0.95-2.06 1.08-7.82-0.34-9.43-0.88-12.68-0.13-5.96 0.88-5.67-0.68-6.4-0.34-5.75 1.09-6.62-0.75-10.68 0.21-2.2-0.89-9.04 1.29-5.75-0.61 0.14-180.9 0.06-0.48z" fill="#52291A"/>
  <path d="m10.31 10.04 4.22-1.02 7.82 0.82 7.78-2.93 6.84 0.99 5.75-0.14h7.21l6.49 1.02 6.84-0.95 8.22 0.61 12.27-1.09 12.47-0.13 5.75 1.09 19.77-0.41 8.65 0.95 9.04-1.49 5.21 0.27 6.39 0.13 8.39-0.85 8.66 0.99 7.15 0.61 14.65 0.27 0.34 6.14-1.5 1.82-0.61-0.68-1.27-2.36-3.62-1.36-4.94-0.41-3.05 2.11-2.04-1.08-7.96-0.95-9.17 0.74-4.62-1.7-5.68-0.34-8.9-0.27-5.75-0.67-7.08 0.34-4.68 2.03-3.42 5.16 0.81 1.66-2.36-0.61-5.01 0.48-3.82 3.73-0.21 2.64-4.35 0.95-2.76 2.63-0.61 3.86 3.06 2.29 4.39 0.81 5.08-1.08 3.55 1.08-5.21 2.49-3.76 0.68-7.72-0.68c1.34 1.49 5.95 2.24 9.94 0.88 3.98-1.35 10.69-3.5 13.82-4.59l3.19 0.55-3.83 2.49-1.91-0.21c2.49 1.36 6.56-0.34 7.69-2.01 3.42 0.68 7.04-2.02 8.63-3.92l3.89 0.27 3.06 2.04 0.48 3.83 1.09 2.43-0.41 3.14 2.49 1.86 7.32-1.29 6.52 2.18 3.13 2.43 0.34 6.41-6.52 4.1-2.99-3.9-3.62-5.65-5.99-0.14-3.29 1.22-4.68-4.53-6.23-0.61-6.26 4.53-6.13 0.27-3.82 2.11-2.56 5.68-4.61 2.07-2.3 5.1-2.04 1.73-0.68 3.76 2.93 2.56 5.31 0.21 7.08-2.77 4.22 0.95 3.49-1.29 0.27 2.03-3.25 1.29c3.93 1.42 8.01-1.15 9.79-3.38 1.64-1.43 5.81-2.82 8.06-1.94l4.22 3.43 5.22-1.49 9.8-8.02 4.45-2.43 6.84-0.78 1.65 1.79-6.06 3.08-4.58 5.75-0.95 1.56-5.61 3.87-1.01 4.59 3.76 4.8 3.95 0.95-2.17 2.36-4.02 0.27-5.41-1.42c1.63 2.43 7.28 2.98 10.34 1.15l6.1-1.56 5.11 0.27 4.87-3.03 4.61-1.9 1.88 1.73-3.41 10.77 0.88 4.27-1.02-1.09-2.95-0.88-4.94 0.4-5.07 2.04-2.46 4.7-3.96 1.56-3.62 3.8-2.53-2.7-7.4-3.21-5.78-0.27-11.71-12.45-6.2-3.94-12.75-4.05-9.87-0.88-11.71 1.29-4.21-0.88-3.06-3.93-0.54-5.88 2.43-6.35 5.18-9.37 0.75-7.86-3.35-7.62-4.87-3.34h-4.36l-5.38 2.57-2.89 5.32-0.74 1.39-14.26 10.37-4.58 3.59 0.41-1.25 3.96-3.56 14.91-10.14-0.6-0.04 0.9-2.39 1.12-2.18 4.03-3.07 5.15-1.09 5.01 1.09 4.65 4.71 1.36 5.68-0.47 5.92-3.22 7.02-4.74 8.53-1.01 6.11 1.81 4.53 3.12 2.46 4.31-0.75 6.77 0.07 11.44 1.36 13.2 3.54 6.91 4.14 9.17 7.79 3.66 4.63 1.36 4.21-7.14-5.75 5.92 7.28 1.99 7.02 1.84 6.53-1.22 4-3.22 0.2-1.97-1.83-2.46 2.11-2.95 0.27-3.19-2.3-3.12 0.95-3.51-0.88 5.41 5.67 1.45 7.96 2.69-5.1 1.45 3.9-0.27 8.9 6.33-8.02 3.36 7.14 1.78 7.15 4.16-9.27 1.96-2.56 1.09 15.81 4.63-9.34 1.42-9.63-2.72-8.03 5.95 13.61 1.94-11.61-2.76-10.7 1.56 1.53-4.02-10.65-6.41-6.07 7.19 3.59 5.11 6.2 1.84-9.7-0.47-6.05 5.07-2.5 5.55 0.78 2.36 1.66-0.34 3.24-4.29 2.04-2.4 3.4 0.34 4.35 5.58-0.07 1.78-1.96 4.67 0.13 4.29 2.57 1.21 6.28-3.75 7.03-3.96-0.95-5.49 3.8-6.94 9.37 0.34 3.62-1.52 4.76-4.81 4.5-4.64 5.92-1.65 5.1-2.69 2.63-5.95-5.16-6.39 0.55-2.3-1.16-5.21-1.9-5.92 1.09-4.09 5.61 0.07 2.37-4.8 1.73-3.76 0.88-1.71 3.76 1.5 4.77 4.39 1.08 6.09-1.35 4.22-1.96 4.01 2.16 6.84-0.61 3.83 1.09-3.9 4.05-5.38 1.56-3.76 3.14-1.31 3.24 3.62-0.54 3.82-2.5 3.96 0.55 3.42 1.81 2.46-3.17-1.54-3.58 4.32-4.16 4.7-0.4 4.09-1.56 3.52-6.17 7.01-2.15 2.1 1.22 4.03-1.09 3.36-1.66 6.09 0.68 4.68 2 0.81-7.02-3.02-4.87-4.57-1.66-5.67 0.28-4.88 2.03-4.64 2.87-2.13-0.54 1.46-4.7 3.16-4.4 3.29-5.81 2.99-3.31 2.56-5.29 4.88-6.08 5.38-5.29 0.95-6.08 2.53-9-0.95-7.02 1.88-4.53-0.88-5.75 0.88-6.41-2.62-6.34-0.47-5 1.21-3.99-1.34-7.43 1.61-6.52-1.72-8.02 0.98-8.93-7.85-2.1-4.73 0.81-1.88 3.94-5.13 2.03-3.12-4.77 0.64-2.28 4.5-0.95 2.93-2.9 5.74 0.48 4.68 1.96 3.48-0.94 0.07-1.77-3.76 0.55-4.13-2.43-0.88-1.83 3.82 0.34 4.54-2.63-0.61-5-2.67-7.8-6.09-3.86-6.4 1.09-0.34 3.93-3.06 0.54-5.38 1.77-3.29 3.43-4.94 2.21-1.02 4.08 2.23 2.97 6.03 1.36 7.35-1.22 1.46 1.43-2.3 2.36-6.46 1.74-3.06-0.55-5.38-0.27-4.94 1.36-4.36-1.56-0.74-4.03 2.52-4.66 6.06-2.37 1.12-3.97 3.32-0.74 3.06-0.55 1.45-2.21-3.65-0.51-2.46 2.04-3.55-0.27-0.4-1.96 2.3-1.09 4.87-2.73 6.95-3.17-3.32-0.27-8.16 2.97-4.64-2.77-2.82-0.41 3.62 3.39-1.27 0.95-8.9-5.32-4.32 1.25 8.72 6.3-6.13-2.1-6.23-4.13-7.65 0.07h-5.01l-3.75 1.96-0.95 3.72 4.02 1.09 7.62 0.82 5.01 4.38 3.15 1.7-4.5 0.68-3.89-3.7-7.45-1.8-5.21-0.48-2.04-0.34-3.52 0.41-4.09 4.2-1.56 2.43-2.95 0.58-2.76 2.7-0.54 3.7 3.06 2.43 5.45 0.68 7.45-2.08 4.36-0.27 2.82-1.97 4.26 0.47 2.7 0.27-3.49 1.77-3.61-0.48-3.95 2.36-4.94-1.09 3.76-1.67 6.42-4.8 4.68 1.29 4.43-0.68 2.71-2.7 5.89 0.48 3.58 0.75 3.06-2.18 2.73-1.45 0.88-3.31-3.12-2.29-5.75 1.96-5.14-0.14-5.82-3.79-6.61-2.22 0.13-0.88 4.58-0.21 8.79 7.5-4.81-5.81-0.68-2.3 2.09 0.07 6.19 7.84 7.01 0.78 1.78-1.73 0.81 1.22-0.95 2.9-5.31 3.7-1.88 3.24-7.32-1.09-5.45 3.64-4.02-1.76-5.45 0.41 3.19-3.04 5.21 0.62 2-2.3-3.69-1.35-5.89 0.48-6.94 3.94-7.08-3.86 8.23 2.26-2.3-4.39 4.67 3 1.12-4.6 4.09 4.8 0.38-5.88 3.99 5.54 1.08-3.07-5.45-3.26-0.88-1.09 2.2 0.55 5.5 4.61 4.58-1.21-6.49-5.35-2.56-2.03 2.76 0.34 7.68 6.43 9.4-0.75-5.32-2.93-2.92-3.76 2.33 1.35 6.29 3.84 4.6-1.08-7.01-6.01-2.59-3.05 1.84 0.34 7.22 5.28 4.57-0.07-2.53-3.73 0.88-0.88 2.83 3.06 6.46-2.93 3.42 0.21-3.69 2.38 7.46-1.84 5.68 0.21 0.74 4.27-2.13 1.43 4.87-2.63 1.21-2.43 4.94-0.17 5.04 2.73 1.12 3.01 0.07 4.96-3.76 3.93-4.74-2.03-4.58-4.96 4.65 7.66-9.33-7.15 2.56 7.15-7.78-4.06 5.83 5.85-8.23-1.79 6.48 3.59-6.2-0.55-3.29 0.27 3.83 1.29 7.89-0.95 3.19 0.2 1.02 1.09 2.59-0.62 0.68-1.28 2.39 0.14 5.41 3.06 2.06-1.02 0.07 7.02-2.13 1.97-4.57-0.95-3.89-0.14-3.05 1.29-2.17 2.77-3.96 1.02-0.88 3.03 2.99 2.97 6.03 0.61 3.88 2.43 7.82-0.54v1.59l-2.89-0.67-5.21 1.02-3.61-2.33-7.26-0.82-2.53-6.24-0.54-4.7 1.28-2.73" stroke="#52291A" stroke-miterlimit="10" stroke-width=".8"/>
  <path d="m10.59 10.52 43.33 1.35 1.35 4.87-3.06 3.51-6.09 1.19-5.45-2.34 0.95 2.92-4.87 4.14-6.49-0.41-6.52-5.5-4.8-2.43-7.92 0.61-0.43-7.91z" fill="#B8602E"/>
  <path d="m11.06 17.09 4.36-0.96 5.81 1.5 2.83 2.83 3.65-0.21 5.01 5.78 5.11 0.06 6.53-4.92-2.14-4.15 2.59 3.03 6.07-0.34 3.75-2.97 0.54-4.53 4.68 1.69c4.35 2.43 10.45 1.16 13.44-1.29-2.73 1.57-7.94 2.72-13.18 0.14l-5.35-1.7-44.11-0.34 0.41 6.38z" fill="#D69B62"/>
  <path d="m107.8 10.38-5.28 2.23-5.55-0.54-1.91 4-5.25 1.77-6.58-0.88-1.12-1.16-1.02 4.05-3.82 2.37-6.2-1.22-0.27 4.7-5.38 4.66-6.88 1.14-7.01-2.56-2.3-1.74 0.41-0.55 3.62 2.36 6.1 0.55 4.5-1.85-3.82 0.82-3.76-0.68-5.22-2.23-1.35-2.5 2.23 2.3c3.16 2.22 9.87 3.04 16.26 0.54l2.4-3.06-0.61-2.85c1.78 1.05 7.13 2.24 10.29-0.34l2.04-3.99c3.68 2.04 11.98 1.73 14.47-3.58l4.87 0.68 6.14-2.44z" fill="#E6B67E"/>
  <path d="m10.11 19.03 1.02-1.32 7.01-0.28 4.81 3.03 6.1 0.27 4.97 5.5 5.89-0.41 6.13-4.58 2.16 3.29-1.35 1.7 1.21 2.9-0.34 5.48-6.36 4.91-6.33 0.21-3.22-2.04-1.75 4.37-4.94 1.67-4.67-0.48-3.58 3.67-5.81 1.42-2.36-0.61 0.34-15.64-2.13-3.76 0.54-6.35 0.61-3.87 2.05 0.92z" fill="#EFCA9E"/>
  <path d="m17.01 26.37 3.62-0.21 4.02 1.15 2.46 4.87 1.94 0.74 1.88 1.09-0.88 4.02-3.89 2.37-5.07-0.61-2.2-0.54-1.02 1.46-4.5 1.22" stroke="#AD6A39" stroke-miterlimit="10" stroke-width=".6"/>
  <path d="m32.92 29.95 6.53-1.69 5.45 0.88 2.95 1.49v4.57l-4.06 3.86-5.96 0.95-5.68-1.91-1.89-4.37 2.66-3.78z" fill="#D69B62"/>
  <path d="m145.9 77.71c2.1-2.7 6.84-3.59 10.26-1.69l5.32 3.24 4.25 5.92-2.76 5.53-3.89 2.43c-3.36-1.48-10.14-0.77-13.04 1.9 2.92-3.1 7.93-5.9 12.48-4.4l3.76-2.8 2.36-1.9c-3.55-1.83-8.22-2.1-12.28 0.38-1.56-2.09-4.61-2.73-5.78-2.59-0.81-1.56-3.01-4.46-7.1-2.94-2.76 1.02-4.32 3.32-5.06 5.05-3.15-2.5-9.25-3.72-11.98 1.17l-2.39-0.68c2.59-5.19 8.72-4.45 12.14-2.69 1.02-5.06 6.7-8.69 13.71-5.93z" fill="#E6B68A"/>
  <path d="m161.8 103.9c-0.74-5.54 5.49-8.11 11.48-6.96l3.33 1.83 0.95 3.67-4.35 3.66-1.45 3.24-3.69-2.1-4.57 2.59-1.7-5.93z" fill="#C95A2D"/>
  <path d="m172.1 106c1.12-3.12 5.07-3.26 7.36-2.07l1.92 2.2c-4.22-1.73-6.67-1.05-8.39 2.72-0.34-0.54-1.58-1.05-0.89-2.85z" fill="#DDB181"/>
  <path d="m157.2 110.9 1.78-4.14 4.58-1.9 4.09 0.89 2.39 4.2 3.09 2.15 5.92-0.75 4.13 2.04 3.22 3.72-2.52 6.88-5.11-1.35-7.01-1.56-6.52 1.76-9.17-4.99 1.13-6.95z" fill="#C95A2D"/>
  <path d="m164.1 116.1c1.33-2.7 3.53-3.65 5.93-2.7l2.95 2.03c0.67-2.43 4.17-3.25 6.8-0.62l0.85 2.18c-2.4-1.29-5.55-2.37-7.79 0.13l-3.55 0.61-3.32 2.29-2.46-2.96 0.59-0.96z" fill="#EFCA9E"/>
  <path d="m56.31 110.1c1.34-6.2 6.82-8.31 11.24-6.71l5.01 3.6 2.76-0.68 1.02 7.8-2.56 0.81-2.89-1.73-6.13 0.48-3.48-2.76-2.83 0.07-2.14-0.88z" fill="#D69B62"/>
  <path d="m52.93 114.3c2.2-2.13 6.19-1.45 8.35 0.78l0.95 1.29c-3.12-1.77-6.11-2.58-9.3-2.07z" fill="#F0D2A8"/>
  <path d="m46.63 111.9c0.54-4.53 6.16-4.12 8.98-2.29l0.48-1.77c-3.43-1.97-7.75-0.88-8.98 1.77-0.68-4.53-6.22-7.85-10.96-4.79-2.86-3.66-7.18-4.61-10.54-2.41-2.2-3.07-6.45-3.68-9.28-1.95l-1.94 2.9-1.98 1.77-1.49 5.07 0.68 7.35 3.58 2.5 1.28 2.67-0.81 5.39 7.3 0.61 6.91-0.68 3.23-7.73 4.67-1.39 1.28-3.9-2.03-6.84-4.46-2.56-7.28-1.79 3.22-2.8c4.57-1.62 11.4-0.2 13.22 2.19l4.92 8.68z" fill="#BD794A"/>
  <path d="m17.8 136.9-1.56-7.76 5.01-0.41 4.06-2.66 3.92 1.02 2.83 1.71 5.65 1.32 3.02 3.89 2.3 4.9 2.59 2.19 0.54 6.01-4.03 6.14-3.36 1.02-6.17-3.8-5.78-0.34-5.78 1.9-2.43 3.93-3.49-2.5 0.82-5.42 1.86-2.63v-8.51z" fill="#D69B62"/>
  <path d="m17.67 159.1c3.15-5.98 10.23-4.76 13.19-3.16l2.86 4.73 2.39-1.02 3.62 0.61 2.73-3.23 4.57-0.95 5.28 1.56 6.13-0.34 1.42-3.57-3.05-3.76-5.15-0.68-4.42 0.61-2.13-2.86-4.09 2.93-5.32 0.14-4.71 5.03-6.13-0.34-5.61 2.56-1.58 1.74z" fill="#C95A2D"/>
  <path d="m61.01 158.3c3.92-3.13 9.41-1.63 12.47 0.65-2.99-4.17-9.28-5.06-13.15-2.62l0.68 1.97z" fill="#F0D2A8"/>
  <path d="m83.05 153c1.56-3.86 6.06-4.81 10.81-1.57-2.83-4.53-9.12-4.4-10.81 1.57z" fill="#C95A2D"/>
  <path d="m90.1 143c3.05-2.93 8.54-3.07 10.42 0.13l2.03 4.73-0.4 9.67-2.93 5.46-2.06-1.02c-1.03-4.65-7.97-6.41-12.33-4.85l-1.98-1.63c-0.34-3.06 3.02-9.71 7.25-12.49z" fill="#B75527"/>
  <path d="m122.4 153.1c4.74-2.93 9.03-2.04 11.3 0.55 1.08-3.41 4.14-4.5 7.43-3.62l7.82 3.21 1.97 5.61 2.96 3.36 0.27 2.89-2.92 2.74-6.98-1.02-6.52-3.1-5.08-0.92c-3.42-4.16-8.88-2.02-11.47 0.98l-1.13-5.27 2.35-5.41z" fill="#A86739"/>
  <path d="m31.14 162.7c3.43-1.56 6.45-0.95 7.57 2.05l-1.05 3.66-6.2-1.29-0.32-4.42z" fill="#AD5928"/>
  <path d="m10.11 170.7 7.56 6.35h2.89l3.36 12.67-13.74-0.4-0.07-18.62z" fill="#AD4B28" stroke="#52291A" stroke-miterlimit="10" stroke-width="1.27"/>
  <path d="m71.81 165.3 3.06-2.8 3.36 1.06 3.98 5.2-3.98-0.88-2.4 2.43-4.02-1.55v-3.46z" fill="#AD512A"/>
  <path d="m35.16 175 2.73-4.17c3.16-2.69 8.94-2.14 11.97 1.95l-1.53 3.13c-3.29-3.87-8.91-4.14-11.58-0.2l-1.59-0.71z" fill="#D69B62"/>
  <path d="m64.91 173.2c0.54-4.21 5.51-4.69 8-1.4l-1.98 2.37c2.92 1.02 3.12 3.75 2.72 5.11l3.69-2.49 4.67 0.41 3.43 2.63 1.28 3.03 6.52-1.02 3.36 3.17 0.34 4.63-27.63-0.61-11.91-0.34-2.99 0.2-3.93-2.76-3.29-1.05-4.35 0.41-4.33-3.17-2.1-5.19c-2.92-1.09-2.04-5.87-8.3-7.12l-3.49-2.86-7.08-6.96-0.81-2.99 1.68-4.38c3.62-3.62 10.84-4.1 13.8-1.43l5.68 1.22 3.19-2.33 2.16-3.99 4.07-0.41 5.55 0.95 4.26-1.76 4.09 0.95 5.92 2.73 5.28-0.13 3.76-1.66" stroke="#52291A" stroke-miterlimit="10" stroke-width=".8"/>
  <path d="m66.22 128.3c1.02-3.34 5.28-4.36 8.9-3.21 1.95 0.65 3.92 1.91 4.26 5.34l2.33 0.61 3.02 2.67 2.93-2.67 3.55-0.61 3.19 1.22" stroke="#AD5A30" stroke-miterlimit="10" stroke-width=".6"/>
  <path d="m76.23 133.2 4.47-0.28 3.22 0.75 4.74 1.29" stroke="#AD5A30" stroke-miterlimit="10" stroke-width=".6"/>
  <path d="m112.7 181.7c3.52 1.83 7.54 0.95 10.6-2.23l3.16-0.47 3.55 1.29" stroke="#AD4B28" stroke-miterlimit="10" stroke-width=".8"/>
  <path d="m8.57 8.71v183" stroke="#52291A" stroke-linecap="round" stroke-miterlimit="10" stroke-width=".8"/>
  <path d="m193.7 5.82v186.2" stroke="#52291A" stroke-linecap="round" stroke-miterlimit="10" stroke-width=".8"/>
  <path d="m115.8 195.7h13.31" stroke="#52291A" stroke-linecap="round" stroke-miterlimit="10" stroke-width=".4"/>
  <path d="m132.8 195.7h14.84" stroke="#52291A" stroke-linecap="round" stroke-miterlimit="10" stroke-width=".8"/>
  <path d="m151.3 195.4h14.54" stroke="#52291A" stroke-linecap="round" stroke-miterlimit="10" stroke-width=".4"/>
  <path d="m169.2 195.4h10.47" stroke="#52291A" stroke-linecap="round" stroke-miterlimit="10" stroke-width=".4"/>
  <path d="m184.3 194.8h1.56" stroke="#52291A" stroke-linecap="round" stroke-miterlimit="10" stroke-width=".4"/>
  <path d="m10.04 195.4h3.33" stroke="#52291A" stroke-linecap="round" stroke-miterlimit="10" stroke-width=".4"/>
  <path d="m18.68 195.7h3.06" stroke="#52291A" stroke-linecap="round" stroke-miterlimit="10" stroke-width=".4"/>
  <path d="m25.13 195.2h6.68" stroke="#52291A" stroke-linecap="round" stroke-miterlimit="10" stroke-width=".4"/>
  <path d="m34.57 195.2h7.65" stroke="#52291A" stroke-linecap="round" stroke-miterlimit="10" stroke-width=".4"/>
  <path d="m43.85 194.9 8.43 0.34" stroke="#52291A" stroke-linecap="round" stroke-miterlimit="10" stroke-width=".4"/>
  <path d="m62.09 195.7h4.94" stroke="#52291A" stroke-linecap="round" stroke-miterlimit="10" stroke-width=".4"/>
  <path d="m70.62 195.7h2.83" stroke="#52291A" stroke-linecap="round" stroke-miterlimit="10" stroke-width=".4"/>
  <path d="m75.81 195.7h1.49" stroke="#52291A" stroke-linecap="round" stroke-miterlimit="10" stroke-width=".4"/>
  <path d="m12.21 5.35h69.44" stroke="#52291A" stroke-linecap="round" stroke-miterlimit="10" stroke-width=".4"/>
  <path d="m155.8 5.62h19.85" stroke="#52291A" stroke-linecap="round" stroke-miterlimit="10" stroke-width=".4"/>
  <path d="m193.7 11.33v5.82" stroke="#52291A" stroke-linecap="round" stroke-miterlimit="10" stroke-width=".8"/>
  <path d="m193.9 73.43v7.86" stroke="#52291A" stroke-linecap="round" stroke-miterlimit="10" stroke-width=".4"/>
  <path d="m194.5 48.45v6.08" stroke="#52291A" stroke-linecap="round" stroke-miterlimit="10" stroke-width=".4"/>
  <path d="m194.5 97.25v1.35" stroke="#52291A" stroke-linecap="round" stroke-miterlimit="10" stroke-width=".4"/>
  <path d="m194.5 140v8.67" stroke="#52291A" stroke-linecap="round" stroke-miterlimit="10" stroke-width=".8"/>
  <path d="m194.5 158.2v8.15" stroke="#52291A" stroke-linecap="round" stroke-miterlimit="10" stroke-width=".8"/>
  <path d="m194.5 170.7v8.25" stroke="#52291A" stroke-linecap="round" stroke-miterlimit="10" stroke-width="1.27"/>
  <path d="m194.5 182.3v4.16" stroke="#52291A" stroke-linecap="round" stroke-miterlimit="10" stroke-width=".8"/>
  <path d="m5.39 15.26v8.67" stroke="#52291A" stroke-linecap="round" stroke-miterlimit="10" stroke-width=".8"/>
  <path d="m5.39 27.04v6.89" stroke="#52291A" stroke-linecap="round" stroke-miterlimit="10" stroke-width=".4"/>
  <path d="m7.76 52.79v2.87" stroke="#52291A" stroke-linecap="round" stroke-miterlimit="10" stroke-width="1.27"/>
  <path d="m7.49 57.81v3.9" stroke="#52291A" stroke-linecap="round" stroke-miterlimit="10" stroke-width=".8"/>
  <path d="m7.49 64.62v1.39" stroke="#52291A" stroke-linecap="round" stroke-miterlimit="10" stroke-width=".4"/>
  <path d="m5.39 135.6v5.92" stroke="#52291A" stroke-linecap="round" stroke-miterlimit="10" stroke-width=".4"/>
  <path d="m5.39 146v7.63" stroke="#52291A" stroke-linecap="round" stroke-miterlimit="10" stroke-width=".8"/>
  <path d="m5.39 157.6v6.78" stroke="#52291A" stroke-linecap="round" stroke-miterlimit="10" stroke-width=".8"/>
  <path d="m5.8 171.8v7.08" stroke="#52291A" stroke-linecap="round" stroke-miterlimit="10" stroke-width=".8"/>
  <path d="m193.9 120v1.42" stroke="#52291A" stroke-linecap="round" stroke-miterlimit="10" stroke-width=".8"/>
  <path d="m7.76 120.6v2.49" stroke="#52291A" stroke-linecap="round" stroke-miterlimit="10" stroke-width=".8"/>
  <path d="m5.39 186.2v3.43" stroke="#52291A" stroke-linecap="round" stroke-miterlimit="10" stroke-width="1.27"/>
  <path d="m76.6 37.76c-7.08 0-9.62 6.42-9.89 8.38l-19.47 13.67 0.41 0.34c5.28-2.69 17.58-8.91 24.37-9.77l5.71-0.85 2.63 1.36 0.68 2.37-1.28 4.67c-7.19 8.22-9.48 14.23-11.87 22.71-1.12 9.8 2.24 19.8 8.82 26.09l4.26 2.69c2.66 4.8 9.06 10.69 14.25 14.26l8.6 12.67 1.02 12.66-1.02 10.22-9.36 12.93-2.04 8.55v8.41l2.1-6.17 1.77 3.86 0.54-10.61 2.2 0.48 0.27-4.05 5.35-9.05 0.27 26.63 2.36-0.2 0.88-29.49 16.49-14.98 0.07-1.9-7.05-11.17 6.06-3.06-1.81-2.55-8.6 4-5.1-2.75-1.12 7.7-1.79-1.62 2.71-6.58-6.06-2.86 7.55 2.86 1.02-1.35-6.4-3.23-12.92-9.2-6.1-7.69-0.68-10.22 1.88-3.39 5.82-1.56-2.76-1.28 4.35-1.36-2.76-4.6h5.11l5.11-0.61 6.03 1.49-2.17 2.6 2.3 0.78 0.61 1.77 3.92 1.29 5.89 3.24-6.29-1.69-5.32-3.49-3.99-0.78 1.87-1.83 0.07-2.43-3.49-1.01-7.99-1.36-8.6 1.42-6.95-0.34-4.32-7.67 0.34-7.31 2.86-5.82 2.66-2.37 3.16-4.73 4.19-6.84-1.77-2.44-3.56-0.68-3.82 1.29-4.79-0.81-1.74-0.75 2.53-5.38 3.79-1.51z" fill="#51291A" stroke="#F2E8CA" stroke-miterlimit="10" stroke-width=".8"/>
  <path d="m73.43 43.32 0.49 2.08 0.68-0.2 0.75-1.77-1.92-0.11z" fill="#F2E8CA" stroke="#020202" stroke-miterlimit="10" stroke-width=".5"/>
  <path d="m10.11 75.21 5.45-4 5.22-0.41 3.06-2.53 4.06-0.61 4.81 0.95 3.57 3.32 5.45-0.65 4.5 2.37 1.97 3.44-0.34 5.1 2.47 1.87-1.28 3.33 4.6 0.41 2.3 1.89 0.89 2.91-2.23 2.8-4.88 2.22-6.45-0.61-6.1-1.76-9.47-0.87-5.1 0.74-4-1.77-0.95-3.76 0.48-3.57-2.96 1.6-5.14 1.39 0.07-13.8z" fill="#824926" stroke="#52291A" stroke-miterlimit="10" stroke-width=".8"/>
  <path d="m10.24 81.16 5.45-6.42 5.34-1.02 5.99 0.75 5.19 2.29 6.02-1.75 5.42 1.75-1.56 3.87 5.56 3.49-6.3-1.81 4.36 5.04-6.02-2.03 5.28 4.1-6.46-2.21 1.55 2.55-7.92-3.6-3.89-4.73-1.21 2.13 2.26 2.6-4.95-1.05-5.88 1.12 4.41-3.72-6.06 1.61 3.79-3.76-5.99 1.55 5.45-2.99-7.73 0.68 4.47-3.26-6.57 2.17v2.65z" stroke="#52291A" stroke-miterlimit="10" stroke-width=".8"/>
</svg>