<svg xmlns="http://www.w3.org/2000/svg" viewBox="0 0 150 150">
<!-- SVG created with Arrow, by QuiverAI (https://quiver.ai) -->
  <style type="text/css">.cls-0 {fill:#050608;}</style>
  <path class="cls-0" d="m30.2 45.6 5.6 42.4 5.8 39.7 0.8 5.2c0.1 0.6 0.1 1.1 0.7 0.9l4.9-4.8c0.2-0.1 0.3-0.2 0.2-0.4-5.1-22.8-12.8-65.6-15.2-90.7l0.2 0.1c3.1 12 15.4 83.3 16 87.5h0.2l3.1-21.9 21.8-31.4-0.1-0.2-14.4 18 0.1-2.8-1.2-3.6 0.1-0.2-0.1-1.9 15.1-12.1c1.4-1.1 1.4-1.4 2.8-0.2 3.7 3.9 19.1 17.6 19.1 17.7l-29.9 10.1-9.2 3.6 14.6-23.2 3.1-5.4h-0.1l0.1 0.1-0.1-0.1-0.2 0.1 0.3-0.5v-0.1c-0.5 0.8-1.6 1.9-2.1 2.8-6.2 8.1-19.6 28.1-19.7 28.8l-3.1 22.3h-0.2l0.1 0.2-16.3-87.8c5.6 25.2 16 84.3 18 96.2l0.2 0.6 22.3-9.7 22.2 5.4 0.3-0.1 7.5-26.8-16.6 4.6-16.9-1.6c-3.5-0.4-9.1-0.8-12.9-2.1l29.4 1.7 61.6-17.1 0.1-0.3-42.5-3.4-51.2 18.2-0.3 0.4-4.2 30.2 0.3 0.6h0.2l23-10 22.2 5.7 0.4-0.1 7.4-26.8-16.6 4.6-18.4-1.6c-3-0.4-8.6-0.8-11.4-1.6l29.4 1.2 61.6-17c0.2-0.1 0.2-0.5-0.2-0.6l-42.2-3.2-51.2 18.2-0.3 0.4-4.2 30.2c-0.1 0.9 0.3 0.7 0.5 0.6l23-10 22.2 5.6 0.4-0.2 7.4-26.6-16.6 4.6-16.9-1.6c-3.5-0.4-9.1-0.8-12.9-1.6l29.4 1.2 61.5-17c0.4-0.1 0.4-0.5-0.1-0.6l-42.2-3.2-51.2 18.2-0.3 0.4-4.2 30.4 0.3 0.4h0.2l23-10 22 5.6c0.2 0.1 0.5 0 0.5-0.2l7.5-26.6-16.6 4.6-16.9-1.6c-3.5-0.4-9.1-0.8-12.9-1.6l29.4 1.2 61.5-17c0.5-0.1 0.4-0.5 0-0.6l-42.3-2.8-51.2 17.7-0.3 0.5-4.2 30.4c-0.1 0.5 0.3 0.5 0.5 0.4l23-10 22 5.6c0.2 0.1 0.5 0 0.5-0.2l7.5-26.6-16.6 4.6-16.9-1.6c-3.5-0.4-9.1-0.8-12.9-1.6l29.4 1.2 61.5-17c0.6-0.1 0.4-0.6 0-0.6l-42.3-3.2-51.2 18.1-0.3 0.5-4.2 30.4c0 0.5 0.4 0.4 0.5 0.3l23-9.9 22.1 5.6c0.2 0.1 0.4 0 0.5-0.3l7.4-26.5-16.6 4.6-16.9-1.6c-3.5-0.4-9.1-0.8-12.9-1.6l29.4 1.2 61.5-17c0.6-0.1 0.4-0.6 0-0.6l-42.3-3.2-51.2 18.1-0.3 0.5-4.2 30.4c0 0.5 0.3 0.5 0.6 0.3l22.9-9.9 22.1 5.6c0.2 0.1 0.4 0 0.5-0.3l7.4-26.5-16.6 4.3-0.4 0.3-16.5-1.6c-3.5-0.4-9.1-0.8-12.9-1.9h3.8l25.6 1.5 61.5-17c0.6-0.1 0.4-0.6 0-0.6l-42.3-3.2-51.2 18.1-0.3 0.5-4.2 30.4c0 0.5 0.3 0.5 0.6 0.3l22.9-9.9c0.1-0.1 0.1-0.1 0.3-0.1l21.8 5.7c0.2 0.1 0.4 0 0.5-0.3l7.4-26.5-16.6 4.6-16.9-1.6c-3.5-0.4-9.1-0.8-12.9-2l29.4 3.6 61.4-17.1h0.1c0.8-0.5 0.4-0.5-0.1-0.5l-42.2-2-51.2 14.9-0.3 0.5-4.2 30.4 0.6 0.3 22.9-9.9 22.1 5.6c0.2 0.1 0.4 0 0.5-0.3l7.4-26.5-16.6 4.6h-0.4l-16.5-1.6c-4-0.4-8.8-0.8-12.9-2l29.4 1.6 61.4-16.7c0.8-0.2 0.4-0.7 0-0.7l-42.2-3.4-51.2 18.1-0.3 0.5-4.2 30.4c0 0.4 0.3 0.5 0.6 0.4l22.9-10 22.1 5.6c0.2 0.1 0.4 0 0.5-0.3l7.4-26.5-16.6 4.6h-0.4l-16.5-1.6c-4-0.4-8.8-0.8-12.9-2h3.8l25.6 1.6 61.4-16.7 0.1-0.2v-0.1l-0.1-0.4-42.2-3.4-51.2 18.1-0.3 0.5-4.2 30.6c0 0.3 0.3 0.3 0.6 0.2l22.9-10 22.1 5.6c0.2 0.1 0.4 0 0.5-0.3l7.4-26.5-16.6 4.6h-0.4l-16.5-1.6c-4-0.4-8.8-0.8-12.9-1.8l29.4 1.4 61.4-16.7 0.1-0.2v-0.1l-0.1-0.4-42.2-3.4-51.2 18.1-0.3 0.5-4.2 30.6c0 0.3 0.3 0.4 0.6 0.2l22.9-10 22.1 5.6c0.2 0 0.4 0 0.5-0.3l7.4-26.5-16.6 4.6h-0.4l-16.5-1.6c-3.5-0.4-8.8-0.8-12.9-2h3.8l25.6 1.6 61.4-16.7c0.7-0.2 0.4-0.7 0-0.7l-42.2-3.4-51.2 18.1-0.3 0.5-4.2 30.6c0 0.2 0.3 0.4 0.6 0.2l22.9-10 22.1 5.6c0.2 0 0.4 0 0.5-0.3l7.4-26.5-16.6 4.6h-0.4l-16.5-1.6c-3.5-0.4-8.8-0.8-12.9-1.8h3.8l25.6 3.4 61.4-17 0.3-0.4-42.5-2.2-51.2 14.9-0.3 0.5-4.2 30.6 0.6 0.2 22.9-10 22.1 5.6c0.2 0 0.4 0 0.5-0.3l7.4-26.5-16.6 4.6-16.9-1.6c-3.5-0.4-8.8-0.8-12.9-1.8l29.4 1.4 61.4-16.7c0.7-0.2 0.5-0.5 0-0.7l-42.2-3.4-51.2 18.1-0.3 0.5-4.2 30.6 0.6 0.2 22.9-10 22.1 5.6 0.5-0.3 7.4-26.5-16.6 4.6h-0.4l-16.5-1.6c-3.5-0.4-8.8-0.8-12.9-1.8l29.4 1.4 61.4-16.7 0.3-0.3-0.3-0.4-42.2-3.4-51.2 18.1-0.3 0.5-4.2 30.6 0.6 0.2 22.9-10h0.3l21.8 5.6 0.5-0.3 7.4-26.5-16.6 4.6h-0.4l-16.5-1.6c-3.5-0.4-8.8-0.8-12.9-1.8 4.1 1 9.4 1.4 12.9 1.8l16.5 1.6h0.4l16.6-4.6-7.4 26.5-0.5 0.3-21.8-5.6h-0.3l-22.9 10-0.6-0.2 4.2-30.6 0.3-0.5 51.2-18.1 42.2 3.4 0.3 0.4-0.3 0.3-61.4 16.7-29.4-1.4"/>
  <path class="cls-0" d="m80.4 109.7c0.2 0-0.1 0 0 0l-5.4 11.7 0.1-0.1 3.3-10c0.5-1.7 0-1.7 2-1.6z"/>
  <path class="cls-0" d="m27.3 34.5-24.7 19.7v0.5h0.3l27.2-9.1 5.6 54.2-6.6-3.4c-0.7-0.4-1.8-1-2.1-1.5l-24.9-34.2 0.3-0.4 28.8 9.2 4.5 30.3 0.1-0.1-4.4-29.5-0.1-0.5-28.9-9.4-0.3 0.1-0.1 0.2v0.1l24.9 34c0.7 1 5.6 3.2 8.7 5l0.1-0.1-4.3-29.4-0.1-0.5-28.9-9.4-0.3 0.1-0.1 0.2v0.1c6.7 9.3 24.9 34 24.9 34 0.7 1 5.6 3.2 8.7 5h0.2l-4.4-29.5-0.1-0.5-28.9-9.4-0.3 0.1-0.1 0.2v0.1c6.7 9.2 24.9 34 24.9 34 0.7 1 5.6 3.3 8.7 5l0.2-0.1-4.4-29.4-0.1-0.5-28.9-9.4-0.3 0.1-0.1 0.2v0.1c6.7 9.3 24.9 34 24.9 34 0.7 0.9 4.9 2.9 8.7 5l0.2-0.1-4.4-29.4-0.1-0.5-28.9-9.4-0.3 0.1-0.1 0.2v0.1c6.7 9.3 24.9 34 24.9 34 0.7 0.9 4.9 2.9 8.7 4.9h0.2l-4.4-29.4-0.1-0.5-28.9-9.4-0.3 0.1-0.1 0.2v0.1c6.7 9.3 24.9 34 24.9 34 0.6 0.9 4.9 2.9 8.7 5l0.2-0.1-4.4-29.4-0.1-0.5-28.9-9.4-0.3 0.1-0.1 0.2v0.1l24.9 34c0.7 0.9 5 2.9 8.7 5l0.2-0.1-4.4-29.4-0.1-0.5-28.9-9.4-0.4 0.4c6.7 9.3 24.9 34 24.9 34 0.6 0.9 5 3 8.7 5l0.2-0.1-4.4-29.4-0.1-0.5-28.9-9.4-0.4 0.4 24.9 34c0.7 0.9 5 3 8.7 4.9h0.2l-4.4-29.4-0.1-0.5-28.9-9.4-0.4 0.4c6.6 9.2 24.9 34 24.9 34 0.7 0.9 5 3 8.7 4.9h0.2l-4.4-29.4-0.1-0.5-28.9-9.4-0.4 0.4 25 34.3c0.6 0.9 5.9 3.2 8.6 4.7l0.2-0.1-4.4-29.4-0.1-0.5-28.9-9.4-0.4 0.4 25 34.3c0.6 0.9 5.9 3.2 8.6 4.7l0.2-0.1-4.4-29.5v-0.4l-29-9.4-0.4 0.4 25 34.3c0.6 0.9 5.9 3.2 8.6 4.7l0.2-0.1-4.4-29.5v-0.4l-29-9.4-0.4 0.4 25 34.3c0.7 0.9 5.9 3.4 8.6 4.7l0.2-0.1-4.4-29.5v-0.4l-29-9.4-0.4 0.4 25 34.3c0.7 0.9 5.9 3.4 8.6 4.7l0.2-0.1-4.4-29.5v-0.4l-29-9.4-0.4 0.4 25 34.3c0.6 0.9 5.8 3.3 8.6 4.7 0.2 0.1 0.2-0.1 0.2-0.1l-4.4-29.5v-0.4l-29-9.4-0.4 0.4 25 34.3c0.6 0.9 5.8 3.3 8.6 4.7 0.1 0.1 0.2-0.1 0.2-0.1l-4.4-29.5v-0.4l-29-9.4-0.4 0.4 25 34.3c0.6 0.9 5.8 3.3 8.6 4.7 0.1 0.1 0.2-0.1 0.2-0.1l-4.4-29.5v-0.4l-29-9.4-0.4 0.4 25 34.3c0.6 0.9 5.8 3.4 8.6 4.7 0.1 0.1 0.2-0.1 0.2-0.1l-4.4-29.5v-0.4l-29-9.4-0.4 0.4 25 34.3c0.6 0.9 5.8 3.4 8.6 4.7 0.1 0.1 0.2-0.1 0.2-0.1l-4.4-29.5v-0.4l-29-9.4-0.4 0.4v-0.1l0.4-0.3 29 9.4v0.4l4.4 29.5"/>
  <path class="cls-0" d="m56.8 76.9 1.2 2.5 1.9-1.3z"/>
  <path class="cls-0" d="m60 88.3-22.8-51-0.4-0.3-9.5-2.5-24.7 19.7v0.5l0.3 0.1 27.2-9.2 11.9 85.2c0.1 0.6 0.4 0.4 0.7 0.3l5.4-2.1c0.1 0 0.1-0.1 0.1-0.4-4.8-22.8-13.6-76.6-15.2-90.7l0.2 0.1 16 87.6 0.2-0.2 3.1-22.1 7.9-11.7zm-52.4-37.2 21.9-14.4 2.3 0.7c-6.3 3.8-19.2 10.6-24.2 13.7z"/>
  <path class="cls-0" d="m89.1 78.3 8.4 7.7c2.8-0.6 6-1.9 9-3h0.1l0.1-0.1v-0.1l16.5-67c0.1-0.6-0.4-0.8-0.7-0.2l-33.5 62.6z"/>
</svg>